<?xml version="1.0" standalone="no"?>
<!DOCTYPE svg PUBLIC "-//W3C//DTD SVG 20010904//EN"
 "http://www.w3.org/TR/2001/REC-SVG-20010904/DTD/svg10.dtd">
<svg version="1.0" xmlns="http://www.w3.org/2000/svg"
 width="1920.000000pt" height="1920.000000pt" viewBox="0 0 1920.000000 1920.000000"
 preserveAspectRatio="xMidYMid meet" xmlns:xlink="http://www.w3.org/1999/xlink">

<g transform="translate(0.000000,1920.000000) scale(0.100000,-0.100000)"
fill="#000000" stroke="none">
<a xlink:href="http://caza.lu/location/luxembourg/clervaux/" target="_blank" title="Clervaux">
<path fill="#00BBAA" d="M7750 18913 c-8 -3 -41 -23 -72 -45 -31 -21 -65 -38 -75 -38 -11 0
-23 -4 -28 -8 -20 -17 -122 -51 -185 -61 -36 -5 -146 -12 -244 -15 -164 -5
-180 -7 -193 -26 -8 -11 -28 -23 -46 -28 l-32 -8 -7 -105 c-5 -57 -9 -118 -10
-136 -1 -20 11 -56 30 -93 18 -33 32 -69 32 -79 0 -28 -36 -68 -73 -82 -30
-10 -32 -15 -34 -63 -2 -28 2 -76 8 -108 10 -52 9 -60 -14 -110 -21 -48 -23
-62 -16 -110 5 -30 15 -73 23 -96 13 -37 13 -43 -2 -62 -11 -14 -33 -23 -62
-26 -25 -3 -62 -14 -83 -25 -21 -12 -70 -24 -117 -28 -52 -6 -92 -16 -117 -31
-20 -12 -64 -26 -97 -31 -37 -6 -73 -20 -93 -35 -17 -13 -43 -28 -57 -34 -14
-5 -43 -21 -65 -35 -26 -16 -55 -25 -81 -25 -32 0 -43 -5 -61 -29 -11 -15 -54
-45 -95 -65 -41 -21 -74 -42 -74 -47 0 -5 -16 -26 -35 -48 -34 -37 -35 -41
-36 -122 -1 -122 -12 -182 -41 -226 -14 -21 -42 -79 -63 -129 l-37 -91 10
-124 c7 -99 6 -134 -5 -171 -7 -27 -17 -48 -22 -48 -4 0 -23 -16 -42 -35 -30
-30 -40 -34 -79 -33 -64 3 -160 -42 -181 -85 -9 -20 -38 -46 -74 -68 -47 -28
-64 -46 -82 -85 -13 -27 -23 -65 -23 -84 0 -20 -4 -40 -10 -46 -16 -16 20 -84
45 -84 22 0 155 -151 155 -175 0 -8 9 -34 20 -59 l19 -46 -25 -50 c-14 -29
-36 -55 -52 -62 -19 -9 -28 -22 -30 -43 -4 -35 -28 -65 -52 -65 -34 0 -49 -31
-39 -80 31 -143 31 -141 15 -165 -8 -13 -30 -26 -48 -30 -46 -10 -69 -33 -62
-61 10 -39 -6 -63 -55 -88 -26 -14 -53 -31 -60 -40 -7 -8 -35 -29 -61 -46 -37
-24 -55 -30 -72 -24 -49 16 -103 -9 -121 -57 -9 -25 -65 -49 -114 -49 l-43 0
0 -43 c0 -24 7 -58 15 -74 12 -24 13 -46 7 -109 -11 -97 -4 -115 60 -154 34
-21 55 -43 70 -74 19 -39 25 -44 47 -40 19 4 38 -3 68 -25 39 -28 49 -31 122
-31 62 0 82 -4 89 -15 11 -20 38 -10 45 16 9 33 89 16 93 -20 1 -6 2 -18 3
-26 2 -24 17 -18 56 21 24 24 41 33 54 29 10 -3 23 0 29 7 13 17 9 115 -6 130
-7 7 -12 31 -12 55 0 79 56 73 169 -17 20 -16 64 -52 98 -80 34 -27 65 -50 69
-50 4 0 12 7 18 16 10 12 19 13 56 5 57 -13 69 -2 51 42 -27 68 -26 77 8 77
34 0 51 -26 51 -76 0 -23 2 -24 43 -18 32 4 50 15 78 46 32 35 36 46 32 77 -5
36 -4 38 53 69 87 47 100 61 107 115 9 68 22 87 57 87 20 0 30 -5 30 -15 0
-22 27 -19 40 4 14 27 13 31 -10 31 -21 0 -28 13 -50 87 -14 45 -9 73 14 73
16 0 50 47 51 70 0 8 -6 20 -14 26 -10 8 -11 15 -3 31 8 14 8 23 0 31 -8 8 -4
21 16 47 15 19 32 35 39 35 35 -1 59 -47 55 -103 -3 -41 -2 -42 30 -45 17 -2
32 1 32 6 0 21 103 131 133 143 18 7 45 23 61 37 21 16 38 22 55 19 15 -3 35
1 45 9 27 19 54 18 58 -3 3 -15 11 -11 43 20 22 21 49 46 60 56 13 12 42 21
82 25 54 5 64 3 72 -13 11 -19 5 -54 -14 -86 -34 -55 -25 -90 25 -97 29 -4 94
-94 84 -118 -3 -8 -8 -21 -11 -27 -8 -20 21 -15 50 7 35 28 54 25 62 -10 8
-36 106 -140 133 -140 10 0 37 -9 60 -20 27 -13 61 -20 100 -20 l59 0 7 -40
c4 -24 14 -43 26 -50 32 -17 70 -56 70 -72 0 -8 -6 -20 -12 -26 -18 -18 8 -32
43 -25 21 4 30 0 38 -16 7 -12 18 -21 25 -21 8 0 21 -16 31 -36 16 -34 17 -35
40 -20 27 18 65 21 65 6 0 -16 34 -12 82 9 42 18 108 90 108 118 0 17 31 17
54 0 25 -18 46 -82 46 -139 l0 -47 58 35 c31 20 70 43 86 52 16 10 44 30 63
46 31 26 36 28 50 14 23 -24 28 -99 9 -136 -9 -17 -16 -38 -16 -47 0 -26 -52
-85 -88 -100 -29 -13 -33 -18 -28 -42 20 -106 20 -108 -19 -126 -20 -9 -49
-17 -65 -17 -23 0 -33 -7 -45 -30 -19 -37 -64 -58 -80 -38 -16 21 -43 10 -50
-21 -3 -16 -19 -41 -35 -56 -16 -15 -32 -41 -35 -57 -4 -16 -20 -39 -37 -51
-44 -32 -54 -65 -28 -92 31 -33 25 -52 -25 -74 -51 -23 -61 -44 -15 -34 32 6
38 -4 20 -37 -12 -23 13 -48 33 -32 14 12 109 -9 133 -29 8 -6 25 -9 40 -6 19
3 29 -1 41 -19 22 -34 9 -71 -38 -116 -45 -43 -44 -51 15 -106 20 -19 36 -38
36 -43 0 -6 -12 -22 -26 -36 -18 -18 -22 -29 -15 -36 6 -6 11 -19 11 -29 0
-17 2 -18 30 -3 20 10 42 14 63 10 42 -8 68 16 49 46 -7 10 -12 25 -12 33 0
18 60 56 88 56 12 0 37 9 56 20 33 18 38 18 71 4 41 -17 53 -37 35 -59 -10
-13 -10 -19 4 -33 24 -27 21 -89 -4 -97 -21 -7 -27 -30 -9 -40 24 -15 30 -57
14 -92 -15 -32 -15 -40 2 -108 19 -77 42 -103 83 -90 9 3 33 -5 52 -19 52 -35
70 -38 108 -19 18 9 47 19 64 23 28 5 31 10 36 52 4 32 13 53 29 68 13 11 27
20 30 20 3 0 12 4 20 9 12 8 9 15 -12 41 -31 36 -34 66 -11 98 10 15 13 32 9
51 -5 23 -1 32 16 44 20 14 21 19 9 46 -7 18 -10 44 -6 63 4 18 7 45 7 61 0
18 8 32 24 43 32 21 65 78 65 112 0 15 7 37 15 50 15 20 14 24 -5 49 -17 24
-19 34 -11 73 18 85 29 121 41 135 7 9 16 34 20 56 8 43 8 42 -41 53 -36 8
-64 52 -51 80 27 57 34 87 27 125 -6 39 -6 41 20 41 21 0 29 -8 41 -37 9 -20
13 -44 11 -54 -6 -24 47 -53 72 -40 28 15 145 7 174 -12 47 -30 82 -132 57
-162 -15 -18 -6 -46 24 -75 33 -30 156 -43 156 -16 0 24 79 58 118 50 34 -7
64 6 107 47 17 15 61 42 99 59 65 30 71 31 115 20 25 -7 56 -19 68 -26 30 -18
30 -18 36 14 3 15 13 49 23 76 17 47 17 49 -1 62 -10 8 -43 14 -72 14 -30 0
-67 7 -82 14 -42 22 -86 77 -107 136 l-19 52 -50 -6 c-62 -7 -85 5 -130 69
-41 56 -45 100 -14 139 22 27 56 34 89 16 17 -9 20 -6 25 17 4 16 18 53 32 84
14 31 22 62 19 68 -4 6 -29 11 -56 11 -71 0 -112 23 -149 85 -17 29 -52 73
-76 99 -27 27 -45 56 -45 69 0 28 49 77 77 77 25 0 72 -36 82 -62 6 -17 12
-14 54 31 27 28 46 55 43 60 -3 5 -18 11 -33 14 -39 8 -194 111 -209 139 -19
34 -17 101 5 150 69 153 69 148 -1 251 -24 34 -51 80 -61 102 -10 22 -31 48
-47 57 -22 12 -33 30 -42 62 -9 34 -18 48 -38 54 -39 14 -89 61 -105 98 -12
29 -12 41 0 82 8 26 15 64 15 84 0 45 32 71 80 66 29 -3 33 1 45 35 12 34 11
39 -3 44 -10 3 -32 20 -49 36 -45 42 -43 71 12 153 51 75 56 112 25 159 -28
43 -28 149 1 216 24 54 65 85 100 74 19 -6 19 -6 0 42 -36 93 -16 159 56 185
24 9 32 16 27 28 -18 41 -15 81 9 125 24 42 24 45 7 45 -27 0 -69 59 -71 100
-1 19 6 66 14 105 17 75 44 108 99 121 18 3 28 12 28 24 0 10 3 25 6 34 5 13
-1 16 -28 16 -42 0 -58 12 -101 72 -18 26 -50 59 -72 73 -33 23 -49 27 -109
27 -87 0 -106 13 -106 73 0 22 4 45 9 51 5 5 17 37 25 71 21 80 58 152 97 191
l30 30 -25 25 c-14 15 -26 30 -26 36 0 5 -10 11 -22 13 -17 2 -25 13 -31 38
-10 39 -3 60 42 130 16 25 30 50 30 55 0 6 -18 21 -41 35 -22 14 -77 49 -122
77 -78 51 -118 64 -131 43 -3 -5 -32 -10 -64 -10 -46 0 -71 7 -120 32 -87 45
-92 36 -76 -122 6 -62 5 -82 -9 -107 -9 -18 -16 -50 -16 -72 0 -54 -21 -74
-68 -65 -21 4 -44 10 -52 14 -10 6 -27 -3 -52 -25 -20 -19 -56 -44 -79 -56
-42 -21 -43 -21 -108 -3 -36 10 -90 32 -120 50 -30 19 -69 36 -86 39 -38 8
-159 70 -203 104 -115 89 -135 126 -143 261 -5 78 -14 126 -35 187 -16 46 -31
83 -34 82 -3 0 -12 -3 -20 -6z"><title>Clervaux</title></path></a>
<a xlink:href="http://caza.lu/location/luxembourg/wiltz/" target="_blank" title="Wiltz">
<path fill="#2ecc71" d="M6899 15093 c-20 -2 -45 -13 -54 -24 -10 -10 -24 -19 -31 -19 -7 0
-15 -8 -19 -18 -6 -20 -94 -82 -117 -82 -7 0 -21 9 -31 20 -21 25 -39 25 -62
0 -9 -10 -34 -25 -54 -31 -39 -13 -87 -61 -123 -123 l-23 -38 -52 6 c-48 6
-54 4 -78 -21 -14 -15 -25 -34 -25 -41 0 -7 -11 -17 -25 -22 -29 -11 -30 -13
-9 -45 9 -13 13 -29 9 -35 -3 -5 2 -10 13 -10 31 0 44 -24 36 -65 -9 -48 -41
-69 -94 -62 l-40 5 0 -44 c0 -51 -16 -70 -103 -117 -51 -29 -57 -35 -52 -58 5
-19 -3 -39 -25 -73 -17 -25 -36 -46 -41 -46 -5 0 -9 -11 -9 -25 0 -27 -26 -35
-47 -14 -9 9 -19 9 -42 -1 -16 -6 -35 -9 -41 -5 -6 4 -20 -1 -30 -10 -14 -12
-27 -15 -50 -10 -24 5 -34 3 -44 -10 -19 -27 -71 -10 -125 40 -25 23 -67 56
-93 73 -25 18 -48 36 -50 41 -1 6 -20 17 -40 26 -44 18 -47 10 -24 -46 7 -19
14 -60 14 -92 0 -49 -3 -60 -23 -73 -12 -8 -25 -25 -29 -36 -5 -21 -6 -21 -24
-5 -18 16 -20 16 -35 -1 -9 -10 -38 -29 -63 -42 -46 -22 -47 -22 -61 -4 -8 11
-12 31 -9 46 l5 26 -42 -24 c-50 -28 -77 -30 -83 -6 -4 13 -16 17 -60 17 -67
0 -74 -8 -74 -98 0 -59 -5 -78 -36 -137 -20 -37 -47 -74 -60 -81 -13 -7 -26
-20 -29 -29 -6 -20 -113 -70 -151 -70 -21 -1 -34 -9 -49 -33 -20 -30 -24 -32
-76 -29 l-56 3 -11 -40 c-8 -25 -9 -47 -3 -63 16 -44 -1 -90 -47 -125 -41 -31
-45 -32 -110 -27 -51 5 -77 13 -109 35 -45 30 -47 29 -56 -11 -4 -17 -19 -32
-42 -43 -38 -18 -115 -23 -130 -8 -16 15 -49 21 -64 12 -11 -7 -10 -13 4 -34
13 -20 14 -30 5 -46 -6 -12 -15 -21 -20 -21 -6 0 -10 -20 -10 -45 0 -37 -6
-52 -35 -84 -33 -36 -47 -81 -25 -81 12 0 33 -78 26 -97 -4 -8 1 -35 9 -61 9
-25 18 -64 22 -88 5 -42 5 -43 -37 -64 l-42 -21 7 -59 c6 -52 5 -59 -13 -69
-12 -6 -32 -11 -47 -11 -32 0 -42 -25 -39 -98 1 -38 -4 -59 -17 -76 -11 -13
-19 -36 -19 -51 0 -14 -5 -35 -11 -47 -9 -16 -7 -24 10 -42 47 -50 22 -87 -92
-141 -100 -46 -167 -102 -167 -139 0 -26 -13 -40 -63 -66 -17 -9 -33 -26 -35
-38 -2 -11 -18 -33 -36 -50 -26 -23 -32 -36 -29 -55 4 -21 13 -27 44 -32 21
-4 41 -11 45 -16 3 -5 14 -9 24 -9 10 0 31 -16 46 -35 20 -27 34 -35 59 -35
34 0 95 -26 95 -40 0 -4 26 -16 58 -25 31 -9 71 -22 87 -28 17 -7 34 -11 39
-9 21 7 49 -13 62 -44 10 -24 21 -34 37 -34 50 0 93 -42 88 -87 -1 -6 14 -23
33 -38 46 -35 62 -76 49 -127 -9 -34 -8 -40 9 -49 16 -9 25 -6 44 12 21 20 23
29 18 68 -5 42 -3 49 24 74 25 24 33 27 50 18 51 -27 64 -82 37 -156 -19 -53
-18 -65 3 -65 9 0 30 -7 46 -15 16 -9 38 -13 48 -9 25 8 68 -21 68 -47 0 -18
4 -20 31 -14 36 8 146 -10 211 -35 51 -20 60 -17 119 37 14 13 45 29 68 36 38
11 46 18 61 57 20 52 57 73 92 51 14 -8 24 -9 30 -3 14 14 -28 82 -51 82 -26
0 -41 21 -41 57 0 17 -5 44 -12 58 -10 22 -8 29 12 50 28 30 39 31 85 5 20
-11 47 -20 60 -20 14 0 25 -5 25 -11 0 -6 10 -9 23 -7 18 2 24 13 33 61 19 92
56 117 124 82 20 -10 43 -13 74 -9 55 8 61 -7 20 -55 -24 -29 -25 -34 -13 -64
18 -47 29 -59 44 -47 9 7 16 6 24 -3 6 -8 22 -12 36 -9 20 3 25 0 25 -16 0
-12 -5 -24 -10 -27 -7 -4 -6 -13 1 -26 9 -17 13 -18 26 -7 13 11 18 9 32 -10
9 -13 31 -41 49 -63 38 -48 38 -51 13 -87 -17 -24 -18 -35 -9 -102 11 -86 20
-100 45 -78 10 9 31 22 48 31 24 12 30 22 31 50 1 49 20 70 56 63 25 -5 32 -1
46 24 9 17 25 33 36 36 22 7 10 21 -24 26 -26 3 -26 3 -15 72 3 22 -1 33 -15
43 -11 8 -18 19 -14 24 3 5 7 27 9 49 5 52 20 79 50 90 17 6 23 14 19 25 -4
10 4 27 22 46 31 32 52 37 60 14 4 -8 12 -15 18 -15 14 0 56 -82 56 -111 0
-11 7 -22 15 -25 15 -6 65 -85 65 -104 0 -13 48 -79 69 -96 8 -6 11 -18 8 -28
-9 -23 2 -46 23 -46 24 0 36 -18 21 -33 -6 -6 -11 -24 -11 -39 0 -23 4 -28 23
-28 35 0 59 -32 55 -72 l-3 -33 -62 0 c-48 -1 -69 -6 -90 -22 l-28 -21 24 -26
c14 -14 28 -26 33 -26 5 0 24 16 42 36 38 42 63 42 114 -1 l29 -24 12 42 c15
50 79 147 97 147 8 0 20 13 28 28 25 48 40 54 140 58 86 3 96 1 127 -22 18
-13 44 -24 57 -24 13 0 37 -14 54 -31 27 -26 38 -30 83 -30 l53 0 17 -47 c42
-116 44 -117 110 -102 22 5 43 10 46 10 9 0 29 -48 29 -70 0 -25 53 -137 58
-122 2 6 -2 21 -8 33 -14 25 -7 33 42 48 l37 12 -6 62 c-3 34 -6 66 -7 72 -2
17 44 17 69 1 29 -19 50 -12 85 27 l27 30 -28 56 -27 56 26 28 c24 25 25 27 5
27 -11 0 -28 9 -38 21 -18 19 -18 21 -1 53 10 19 15 43 12 53 -5 15 3 26 35
46 44 29 65 25 71 -14 4 -27 24 -19 20 8 -3 28 24 43 80 43 58 0 88 9 88 27 0
7 7 24 15 37 14 22 15 77 3 226 0 8 -5 21 -10 27 -13 17 -3 43 17 43 11 0 15
11 15 41 0 37 6 46 52 89 l52 48 -32 16 c-18 9 -32 19 -32 22 0 11 24 49 40
64 10 8 22 29 28 46 8 26 7 32 -9 42 -25 16 -24 44 1 67 15 14 20 31 20 71 0
62 20 80 77 71 31 -5 40 -1 82 38 25 24 59 47 74 50 15 4 30 11 33 17 3 5 14
6 24 3 17 -6 17 -3 2 56 l-17 61 24 19 c26 21 72 18 124 -8 24 -12 27 -12 27
4 -1 26 -21 58 -52 83 -21 16 -28 30 -28 55 0 23 -8 42 -26 60 -21 21 -25 33
-22 62 4 29 0 37 -19 46 -29 13 -45 65 -46 149 0 16 13 41 32 63 34 39 40 75
16 95 -22 18 -18 39 10 52 30 14 32 33 5 48 -23 12 -60 80 -60 109 0 11 9 22
20 26 24 8 72 64 64 76 -3 5 -12 9 -21 9 -8 0 -29 6 -46 14 -69 30 -94 35
-114 21 -26 -21 -36 -18 -57 13 -10 16 -28 33 -40 38 -29 12 -34 69 -9 96 10
11 29 24 42 29 l24 10 -29 30 c-27 28 -28 31 -11 43 9 7 17 17 17 23 0 5 18
27 40 48 22 21 40 47 40 57 0 9 15 33 34 51 29 30 33 40 29 71 -4 33 -3 36 21
36 15 0 35 5 46 12 15 10 22 9 38 -6 21 -18 24 -17 47 29 8 15 24 21 60 25
l50 5 1 65 c1 87 0 83 37 105 33 20 74 64 70 77 -2 4 6 24 17 43 18 32 27 85
15 85 -2 0 -30 -17 -62 -39 -136 -91 -174 -113 -187 -108 -14 6 -26 51 -26
102 0 18 -6 47 -13 64 l-13 31 -44 -51 c-59 -68 -106 -91 -179 -87 -38 2 -64
-2 -74 -11 -14 -11 -21 -9 -48 18 -17 17 -37 31 -45 31 -8 0 -17 13 -20 30 -4
17 -11 27 -17 23 -5 -3 -30 -7 -54 -8 -35 -1 -47 3 -59 19 -21 30 -17 51 11
64 22 10 24 14 13 31 -6 11 -22 24 -34 30 -12 5 -27 26 -34 45 -11 35 -14 36
-59 36 -26 0 -51 4 -56 8 -6 5 -30 15 -55 22 -25 7 -55 19 -68 27 -20 12 -26
11 -56 -12 -36 -27 -51 -31 -61 -15 -12 19 6 69 26 75 26 9 24 24 -6 35 -17 7
-25 17 -25 34 l0 25 -35 -20 c-19 -11 -47 -19 -62 -17 -30 3 -33 19 -18 80 10
39 -26 88 -66 88 -18 0 -29 5 -29 14 0 8 -11 23 -25 34 -25 20 -33 42 -15 42
6 0 10 9 10 19 0 10 6 21 14 24 14 5 41 68 28 65 -4 -1 -23 -3 -43 -5z"><title>Wiltz</title></path></a>
<a xlink:href="http://caza.lu/location/luxembourg/vianden/" target="_blank" title="Vianden">
<path fill="#3498db" d="M9022 13826 c-13 -30 -7 -36 53 -51 l40 -10 -3 -55 c-2 -30 -10 -66
-17 -80 -17 -35 -35 -90 -40 -123 -2 -15 -6 -31 -9 -36 -3 -4 6 -19 19 -31 30
-28 31 -37 8 -62 -11 -12 -16 -32 -15 -52 2 -24 -4 -42 -22 -63 -14 -17 -26
-36 -26 -42 0 -6 -9 -16 -20 -23 -12 -8 -20 -24 -20 -40 0 -15 -4 -30 -10 -33
-5 -3 -10 -19 -10 -35 0 -16 5 -32 10 -35 16 -10 12 -62 -5 -69 -9 -3 -15 -18
-15 -36 0 -17 -7 -45 -16 -62 -15 -28 -14 -31 4 -52 42 -47 38 -73 -19 -110
-36 -25 -39 -30 -39 -74 0 -59 12 -72 67 -72 48 0 65 -19 45 -50 -8 -13 -6
-27 7 -56 11 -23 16 -53 13 -72 -4 -29 -2 -32 20 -32 14 0 33 -8 42 -19 9 -10
44 -29 77 -41 42 -15 64 -29 71 -46 14 -29 45 -39 98 -30 35 5 41 3 56 -19 23
-35 12 -56 -24 -49 -16 3 -32 2 -35 -3 -3 -4 1 -33 9 -63 18 -71 18 -81 -5
-87 -10 -2 -24 -16 -30 -29 -10 -23 -9 -24 8 -14 11 5 33 10 50 10 41 0 54
-26 34 -68 -15 -30 -14 -34 3 -53 31 -35 56 -43 134 -43 69 -1 75 -3 78 -23 2
-13 -9 -36 -31 -60 -32 -36 -72 -123 -65 -142 5 -14 48 7 55 26 7 21 73 93 85
93 4 0 30 -13 56 -30 27 -16 61 -30 75 -30 28 0 51 -26 62 -71 5 -21 1 -29
-19 -42 -14 -10 -40 -17 -58 -17 -29 -1 -31 -2 -14 -12 14 -8 28 -8 52 1 31
11 34 10 82 -36 27 -26 56 -62 65 -79 9 -17 33 -44 54 -59 21 -16 41 -33 44
-37 7 -11 37 -13 70 -4 22 6 30 3 48 -23 23 -32 83 -76 144 -104 20 -10 37
-25 37 -33 0 -9 14 -30 31 -47 24 -24 39 -31 61 -28 18 1 37 -4 48 -14 18 -17
20 -16 31 9 11 23 9 37 -10 92 l-22 65 26 31 c15 18 25 40 23 53 -3 25 41 125
55 125 5 0 25 -14 44 -31 34 -29 36 -30 52 -12 9 10 24 31 34 46 10 15 26 27
35 26 9 -1 25 1 34 5 9 4 26 3 37 -3 16 -9 22 -7 33 7 7 9 41 41 76 69 l62 52
88 -6 87 -5 32 63 c24 45 30 66 22 75 -6 7 -13 28 -15 46 -3 18 -9 46 -14 62
-6 16 -10 38 -10 49 0 11 -16 37 -35 58 -19 21 -37 50 -41 64 -15 58 22 99 81
87 27 -5 28 -3 22 24 -3 16 -14 49 -25 74 -19 45 -21 46 -84 59 -118 23 -161
67 -139 140 8 29 25 51 61 78 46 36 62 65 41 77 -5 3 -12 26 -15 51 -6 37 -3
51 14 74 12 18 16 32 10 36 -5 3 -10 14 -10 24 0 10 -29 46 -65 80 -75 70 -82
97 -38 143 l27 28 -38 0 c-54 0 -89 22 -127 81 l-33 52 -18 -23 c-10 -12 -18
-35 -18 -50 0 -40 -40 -94 -73 -98 -44 -5 -60 14 -52 64 3 24 1 52 -4 63 -6
12 -16 31 -23 44 -6 12 -18 35 -26 51 -14 27 -16 28 -23 10 -4 -11 -32 -39
-63 -62 -44 -33 -63 -42 -96 -42 -23 0 -50 5 -62 11 -28 15 -48 69 -48 133 0
59 -5 67 -60 94 -25 12 -42 32 -62 72 -14 30 -40 84 -57 119 -34 69 -37 98
-20 168 14 53 12 55 -68 79 -52 15 -52 15 -114 -16 -34 -17 -80 -46 -101 -65
-40 -37 -43 -38 -121 -40 -40 -1 -52 -6 -78 -34 -30 -34 -31 -34 -101 -28 -65
6 -75 9 -109 43 -50 48 -68 100 -44 118 15 11 16 17 6 47 -21 61 -34 71 -98
74 -32 2 -75 -2 -96 -8 -28 -8 -41 -7 -49 1 -7 7 -22 12 -34 12 -12 0 -24 5
-26 11 -2 6 -9 0 -16 -15z"><title>Vianden</title></path></a>
<a xlink:href="http://caza.lu/location/luxembourg/diekirch/" target="_blank" title="Diekirch">
<path fill="#34495e" d="M8360 13103 c-25 -9 -52 -18 -60 -20 -13 -4 -12 -6 3 -17 25 -19 21
-32 -26 -81 -41 -43 -43 -44 -77 -34 -32 10 -41 8 -84 -18 -27 -15 -57 -39
-68 -53 -16 -23 -17 -31 -6 -82 10 -49 15 -58 34 -58 36 0 48 -23 32 -66 -12
-35 -12 -37 15 -58 20 -16 27 -31 27 -55 0 -24 10 -44 34 -71 34 -38 66 -136
51 -160 -9 -14 -31 -12 -44 4 -13 16 -119 51 -128 42 -3 -3 1 -31 10 -62 11
-39 13 -63 7 -80 -11 -28 -37 -41 -51 -27 -18 18 -57 2 -105 -43 -42 -40 -51
-44 -95 -44 l-49 0 0 -44 c0 -29 -7 -52 -21 -70 -17 -22 -18 -26 -4 -26 8 0
18 -7 21 -15 9 -23 -18 -103 -43 -127 l-22 -21 24 -29 c31 -37 32 -64 3 -79
-34 -17 -78 -61 -78 -77 0 -7 7 -20 15 -28 19 -19 19 -43 1 -50 -8 -3 -12 -13
-9 -25 3 -11 -1 -21 -9 -24 -15 -6 -16 -43 -2 -148 5 -36 2 -54 -12 -75 -10
-15 -17 -39 -15 -54 2 -22 -3 -30 -24 -38 -15 -6 -32 -9 -39 -8 -31 5 -84 -18
-112 -50 -26 -30 -34 -34 -58 -28 -16 4 -30 16 -33 26 -9 34 -33 23 -33 -14 0
-19 -4 -38 -10 -41 -19 -11 -10 -25 15 -25 36 0 42 -27 18 -71 -17 -31 -18
-41 -8 -65 7 -16 19 -35 28 -43 25 -20 20 -44 -13 -66 -16 -11 -30 -28 -30
-37 0 -10 -5 -18 -11 -18 -6 0 -27 -8 -46 -17 -33 -15 -36 -15 -45 0 -19 35
-29 17 -22 -43 l7 -60 -40 -17 -39 -18 11 -41 c5 -23 15 -48 22 -56 21 -24 53
-108 53 -138 0 -44 -16 -49 -100 -35 -41 7 -83 16 -92 19 -10 5 -24 1 -37 -11
-11 -10 -27 -24 -37 -32 -15 -13 -15 -16 10 -33 15 -12 26 -29 26 -43 0 -13
11 -32 25 -43 15 -12 29 -38 36 -68 6 -27 16 -59 22 -71 7 -16 7 -27 -3 -38
-16 -20 -6 -45 20 -45 22 0 40 -34 40 -76 0 -13 4 -24 10 -24 5 0 17 -17 25
-37 15 -35 15 -37 -10 -63 -14 -14 -25 -30 -25 -35 0 -5 -6 -16 -14 -24 -13
-14 -11 -20 11 -45 l25 -29 46 16 c26 9 82 19 124 23 77 7 78 7 133 60 44 43
62 54 88 54 21 0 46 12 76 35 24 19 48 35 52 35 5 0 17 10 28 21 17 18 28 21
63 16 23 -3 44 -10 46 -15 2 -6 11 -8 21 -5 10 3 22 0 25 -6 4 -6 12 -11 17
-11 5 0 -2 20 -16 43 -14 24 -25 49 -25 55 0 11 117 52 147 52 13 0 14 -11 10
-61 -3 -33 -7 -63 -11 -66 -3 -3 6 -15 20 -26 l26 -20 30 23 c17 12 47 24 67
27 31 4 40 0 65 -26 30 -31 59 -44 36 -15 -16 19 -5 31 60 65 25 13 54 31 65
40 11 9 30 20 43 24 13 4 31 25 45 53 15 33 28 47 42 47 15 0 19 -6 17 -25 -9
-81 -15 -74 69 -81 42 -4 82 -10 88 -13 14 -9 14 -43 1 -51 -17 -10 -11 -55 8
-62 9 -3 47 -19 83 -34 53 -23 76 -27 115 -23 38 4 56 1 82 -15 61 -39 94
-128 55 -150 -31 -17 -1 -32 80 -40 83 -7 119 -29 131 -77 4 -13 13 -24 21
-24 26 0 266 166 387 267 143 120 183 146 206 134 9 -5 25 -12 35 -15 25 -8
48 -68 50 -132 1 -30 5 -54 9 -54 14 0 104 53 129 76 24 23 29 24 94 15 37 -6
73 -15 78 -20 12 -12 80 -15 91 -4 17 17 114 41 158 38 67 -4 71 -8 63 -74 -5
-47 -3 -64 13 -92 26 -48 45 -126 34 -146 -5 -9 -7 -24 -5 -34 3 -9 -5 -31
-17 -47 -24 -32 -20 -72 6 -72 8 0 28 -15 44 -34 17 -19 41 -37 55 -40 16 -4
25 -13 25 -27 0 -15 16 -28 65 -50 70 -33 105 -68 105 -104 0 -40 121 -125
138 -98 4 5 15 12 25 16 9 3 17 15 17 25 0 27 50 71 90 78 19 4 48 13 63 21
34 17 57 4 57 -34 0 -13 6 -26 14 -29 18 -7 53 -88 62 -142 6 -40 7 -41 38
-35 17 4 39 17 49 30 26 33 43 29 69 -17 13 -22 29 -40 35 -40 22 0 -7 51 -59
105 -43 46 -48 55 -48 98 0 56 12 70 93 112 31 16 75 47 97 70 l39 40 -46 94
c-43 90 -45 95 -27 108 10 7 25 11 32 8 8 -3 36 -2 63 1 38 5 49 11 49 24 0
10 7 20 15 24 10 4 13 14 9 36 -6 28 -5 30 24 30 38 0 54 19 57 70 3 33 0 40
-15 40 -22 0 -180 56 -192 68 -5 5 -11 27 -13 48 -1 22 -6 63 -10 92 l-8 54
124 124 c118 118 122 124 104 138 -11 9 -23 16 -26 16 -9 0 -59 80 -59 94 0 6
27 38 59 70 65 64 61 64 176 37 134 -31 177 -31 351 -5 34 5 45 2 71 -20 36
-30 39 -31 59 -11 9 8 24 15 34 15 10 0 21 4 25 9 7 13 -19 161 -33 188 -18
33 -15 40 23 66 35 24 36 25 39 108 6 135 -13 156 -87 95 -23 -18 -52 -38 -64
-45 -34 -17 -97 -13 -125 8 -34 27 -74 107 -83 164 -5 36 -10 47 -21 43 -24
-9 -61 11 -86 47 l-23 35 -24 -19 c-36 -29 -99 -25 -147 9 -21 15 -70 41 -107
57 -74 32 -137 97 -137 141 0 27 -40 77 -82 101 -19 12 -42 42 -63 83 -32 63
-34 65 -86 78 -37 8 -64 23 -89 47 -20 19 -38 35 -42 35 -3 0 -19 -29 -36 -65
-37 -76 -48 -81 -146 -65 -79 12 -77 13 -173 -74 -53 -49 -65 -56 -82 -47 -14
8 -22 8 -27 0 -3 -6 -14 -9 -24 -6 -13 3 -28 -8 -50 -39 -17 -24 -37 -44 -45
-44 -8 0 -30 9 -50 21 l-35 21 -15 -36 c-8 -19 -15 -45 -15 -56 0 -12 -6 -34
-14 -49 -13 -25 -13 -34 3 -87 17 -52 17 -62 5 -86 -8 -16 -12 -39 -8 -53 5
-21 3 -25 -16 -25 -13 0 -37 11 -55 24 -26 20 -39 24 -73 19 -34 -5 -42 -3
-42 11 0 9 -8 16 -20 16 -13 0 -20 7 -20 20 0 11 -4 20 -9 20 -5 0 -11 10 -13
22 -2 14 -15 29 -33 37 -16 8 -58 36 -93 63 -42 33 -69 47 -81 43 -19 -6 -66
11 -95 35 -43 35 -86 82 -86 95 0 7 -21 31 -46 53 -38 34 -50 40 -77 35 -33
-5 -127 28 -127 45 0 24 30 44 75 50 40 6 50 11 50 27 0 13 -9 21 -30 26 -16
3 -47 16 -68 29 l-38 23 -29 -28 c-16 -15 -30 -37 -32 -49 -2 -11 -7 -21 -13
-22 -5 0 -23 -6 -38 -12 -45 -19 -64 -15 -71 14 -10 38 20 128 54 168 17 18
30 37 30 41 0 4 -19 5 -42 4 -66 -5 -101 8 -144 52 -36 37 -38 41 -26 71 6 17
10 33 8 36 -2 2 -23 -2 -45 -9 -41 -12 -42 -12 -76 21 -36 35 -46 70 -21 70 8
0 18 -4 21 -10 9 -15 35 -12 35 4 0 8 7 22 16 31 12 11 14 25 9 48 -4 18 -7
46 -8 64 -2 27 -7 33 -40 43 -24 7 -41 19 -47 34 -6 16 -25 29 -60 42 -28 10
-59 26 -70 36 -11 10 -30 18 -44 18 -31 0 -46 25 -51 83 -1 23 -8 57 -14 76
-6 19 -8 38 -4 44 4 6 -5 8 -25 4 -20 -4 -34 -1 -42 8 -7 8 -23 15 -36 15 -12
0 -26 5 -29 10 -8 13 -43 4 -67 -17 -20 -17 -101 -9 -119 13 -9 11 -14 10 -29
-8 -21 -26 -55 -18 -46 10 6 19 -19 38 -59 44 -15 2 -22 14 -27 48 -3 25 -11
65 -17 89 -9 33 -9 52 1 80 14 41 12 59 -8 82 -19 21 -17 49 6 79 25 32 25 43
-1 66 -13 12 -19 27 -16 41 5 27 -2 27 -63 6z"><title>Diekirch</title></path></a>
<a xlink:href="http://caza.lu/location/luxembourg/redange/" target="_blank" title="Redange">
<path fill="#f1c40f" d="M5049 11398 c-1 -13 -1 -27 0 -32 13 -66 -76 -128 -137 -97 -48 25
-101 43 -111 37 -7 -5 -6 -15 5 -31 9 -13 13 -33 10 -43 -5 -15 -1 -21 18 -26
34 -8 80 -87 71 -118 -9 -29 -34 -58 -51 -58 -7 0 -20 7 -28 16 -23 23 -37 14
-55 -36 -15 -41 -21 -47 -71 -63 -30 -10 -59 -25 -63 -33 -4 -7 -28 -26 -53
-40 -44 -26 -47 -26 -80 -11 -35 17 -164 47 -199 47 -23 -1 -49 -33 -59 -75
-11 -42 -24 -55 -56 -55 -59 0 -63 56 -9 117 27 32 39 73 21 73 -5 0 -17 -7
-28 -15 -22 -17 -53 -20 -55 -5 -1 6 -2 15 -3 22 0 7 -16 15 -35 19 -55 11
-60 36 -30 136 10 33 10 47 1 68 -11 23 -15 25 -28 14 -12 -9 -14 -24 -9 -64
6 -46 4 -55 -16 -74 -13 -11 -38 -26 -56 -33 -18 -7 -33 -18 -33 -24 0 -25
-32 -44 -73 -44 -44 0 -52 -8 -72 -78 -4 -12 -18 -30 -31 -39 -24 -15 -27 -15
-52 4 -15 11 -32 34 -37 50 l-10 31 -24 -19 c-48 -39 -126 -20 -161 38 -22 38
-23 38 -32 14 -6 -19 -4 -29 10 -45 45 -49 52 -90 25 -136 -16 -29 -16 -29 30
-85 52 -64 60 -100 26 -131 -16 -14 -35 -19 -77 -18 -52 2 -54 1 -31 -11 44
-23 99 -104 99 -144 0 -76 -80 -145 -141 -123 l-27 9 20 -33 c23 -40 19 -70
-16 -111 -19 -22 -32 -27 -67 -27 -24 0 -51 2 -59 4 -11 4 -16 -4 -18 -28 -3
-26 3 -38 32 -66 20 -18 39 -48 42 -65 4 -17 11 -34 15 -37 5 -3 9 -14 9 -25
0 -11 9 -38 21 -61 25 -49 20 -73 -24 -117 l-34 -34 19 -38 c13 -27 26 -39 48
-44 17 -4 38 -18 47 -31 14 -21 14 -32 3 -84 -13 -61 -11 -90 21 -273 6 -33 8
-61 6 -64 -3 -2 1 -19 8 -38 8 -18 12 -35 8 -38 -3 -3 -3 -18 1 -32 6 -25 7
-25 41 -11 42 18 136 39 185 41 19 1 52 5 73 10 32 6 44 4 68 -14 30 -22 49
-21 49 3 0 21 44 55 79 62 62 13 99 -25 140 -143 20 -57 21 -64 7 -98 l-15
-36 50 -55 c53 -58 69 -89 69 -130 0 -18 10 -31 34 -45 39 -23 106 -134 106
-175 0 -66 23 -115 76 -166 55 -52 72 -87 73 -149 0 -48 17 -88 46 -115 16
-15 25 -34 25 -53 0 -30 1 -31 43 -25 62 8 90 -7 121 -67 26 -48 27 -55 15
-96 -9 -35 -9 -49 1 -68 18 -33 6 -67 -30 -88 -29 -18 -30 -20 -30 -95 0 -49
-5 -85 -14 -97 -9 -14 -12 -39 -8 -81 l4 -60 47 -1 c79 -2 92 -6 122 -40 15
-18 34 -33 42 -33 7 0 31 13 53 29 21 15 57 34 79 41 22 7 62 28 88 47 39 28
55 33 76 27 14 -4 37 -6 51 -5 37 2 84 -31 122 -86 20 -30 39 -48 49 -45 25 5
61 -31 63 -63 2 -17 6 -38 11 -48 4 -10 5 -30 2 -45 -5 -23 0 -31 34 -51 21
-14 55 -45 76 -70 34 -41 42 -46 72 -43 19 2 48 14 64 28 46 39 76 42 104 9
19 -22 29 -26 51 -20 75 18 83 18 107 -5 22 -20 24 -30 20 -74 -5 -46 -3 -54
25 -86 23 -27 33 -31 42 -22 7 7 29 12 49 12 21 0 41 5 44 10 3 6 15 10 26 10
14 0 19 -7 19 -24 0 -29 17 -43 33 -27 16 16 38 14 52 -6 11 -15 16 -15 65 3
34 12 75 38 109 70 63 57 110 85 140 81 12 -1 27 10 43 33 13 19 48 52 79 72
30 20 95 75 144 123 62 59 95 83 105 79 8 -4 32 -9 52 -12 37 -4 55 3 151 57
23 13 55 21 82 21 42 0 44 -1 51 -34 3 -19 4 -39 1 -43 -3 -5 -2 -15 2 -22 6
-9 27 -5 87 19 43 18 80 33 82 35 2 2 -1 12 -7 23 -11 21 2 45 29 54 7 2 7 14
0 38 -6 19 -8 47 -4 62 5 27 -7 61 -33 86 -25 26 -15 47 33 67 l46 19 -37 18
c-21 11 -47 38 -62 62 -24 40 -29 43 -50 33 -18 -8 -27 -6 -44 9 -20 18 -22
18 -51 1 -31 -18 -31 -18 -54 10 -29 35 -29 41 -3 69 18 19 19 26 9 46 -7 12
-21 32 -32 44 -21 24 -16 50 13 59 16 5 18 14 14 69 -5 60 -4 63 24 84 28 21
80 90 94 125 3 9 18 22 32 29 29 13 31 25 11 54 -8 11 -19 53 -25 93 -11 85
-4 103 48 128 31 15 32 18 16 29 -10 7 -23 15 -29 17 -7 3 -4 17 8 41 15 29
17 41 8 59 -27 54 -40 97 -31 102 5 4 9 14 9 24 0 10 11 28 25 41 14 13 25 29
25 36 0 23 81 46 139 39 l54 -7 -6 36 c-3 22 -1 41 6 48 19 20 38 68 31 79
-14 23 7 58 41 69 28 9 35 16 33 33 -2 16 3 22 17 23 11 1 25 2 31 3 7 1 14
10 17 21 3 11 13 20 24 21 10 0 32 9 48 19 17 10 54 31 83 47 l54 28 -33 28
c-18 15 -36 27 -40 27 -4 0 -21 20 -38 45 -34 50 -34 92 -1 155 9 19 23 60 31
90 15 67 45 102 110 130 59 25 63 40 9 33 -23 -3 -40 -1 -40 4 0 5 -12 15 -26
22 -26 11 -26 14 -21 71 5 63 4 66 -38 50 l-26 -10 26 -43 c30 -52 31 -63 6
-77 -14 -7 -27 -7 -45 1 -20 9 -29 9 -41 -1 -12 -10 -18 -10 -30 0 -8 7 -15
19 -15 26 0 8 -10 14 -25 14 -14 0 -25 -5 -25 -10 0 -6 -11 -15 -24 -20 -14
-5 -47 -25 -74 -44 -28 -20 -61 -36 -77 -36 -20 0 -42 -15 -80 -54 l-53 -54
-84 -4 c-52 -2 -96 -10 -119 -21 -47 -23 -108 -19 -123 8 -6 10 -17 25 -23 33
-18 19 -16 59 2 66 8 3 15 12 15 19 0 8 10 27 22 42 19 24 20 29 6 39 -23 17
-40 55 -33 76 5 15 0 23 -18 31 -30 14 -51 51 -45 77 11 41 -10 123 -41 158
-17 19 -31 43 -31 54 0 11 -9 24 -20 30 -34 18 -22 120 14 120 8 0 20 10 28
22 13 20 17 20 49 8 53 -20 122 -29 141 -19 17 9 17 12 3 46 -19 45 -43 72
-73 84 -12 5 -26 19 -31 32 -5 14 -16 27 -24 30 -14 5 -20 24 -34 105 -5 34
-6 34 -50 27 -66 -10 -102 21 -127 111 -6 20 -60 44 -98 44 -8 0 -27 13 -42
29 -15 16 -43 32 -61 35 -18 4 -44 15 -57 26 -21 16 -37 18 -109 15 -66 -3
-86 -8 -94 -21 -5 -10 -33 -43 -62 -75 -34 -38 -55 -72 -63 -101 -23 -92 -44
-104 -99 -55 l-41 37 -41 -40 c-23 -22 -50 -40 -59 -40 -29 0 -99 75 -93 99 8
31 81 93 106 91 47 -4 78 0 72 10 -3 6 -17 10 -30 10 -29 0 -45 26 -45 73 0
21 -6 37 -14 40 -8 3 -17 21 -21 39 -4 18 -20 51 -36 74 -15 22 -31 53 -35 67
-4 17 -13 27 -25 27 -14 0 -19 7 -19 30 0 19 -7 33 -20 40 -12 6 -20 21 -20
36 0 14 -8 40 -17 57 -29 52 -53 62 -53 23 0 -16 -13 -35 -36 -55 -30 -24 -37
-37 -38 -68 -1 -26 5 -42 17 -52 14 -10 17 -21 13 -43 -5 -23 0 -37 19 -60 14
-16 25 -35 25 -42 0 -6 -22 -35 -49 -63 -39 -41 -56 -52 -77 -50 -26 2 -28 -1
-29 -37 0 -27 -6 -42 -19 -50 -10 -6 -37 -23 -60 -38 -22 -15 -49 -28 -58 -28
-27 0 -58 37 -58 68 0 15 -4 54 -9 87 -10 61 -7 95 12 106 5 4 -2 22 -19 43
-26 32 -29 34 -32 16 -3 -17 -10 -21 -35 -18 -29 3 -32 6 -32 38 0 54 -12 75
-50 89 -28 10 -42 24 -66 73 -24 48 -28 63 -18 74 14 17 14 16 -28 38 -46 23
-73 21 -74 -6z"><title>Redange</title></path></a>
<a xlink:href="http://caza.lu/location/luxembourg/echternach/" target="_blank" title="Echternach">
<path fill="#e67e22" d="M12506 10645 c-12 -9 -16 -20 -11 -32 6 -18 34 -177 35 -200 0 -19
-30 -43 -54 -43 -13 0 -29 -7 -36 -15 -18 -22 -49 -18 -87 11 -27 21 -41 25
-66 20 -141 -29 -239 -25 -395 16 -43 11 -43 11 -88 -33 -24 -24 -44 -48 -44
-55 0 -28 41 -63 78 -66 27 -2 37 -8 37 -20 0 -9 -38 -56 -85 -105 -46 -48
-106 -111 -133 -139 l-49 -52 12 -75 12 -75 77 -26 c42 -14 95 -26 119 -26 23
0 42 -1 42 -2 0 -2 -7 -21 -15 -43 -8 -22 -14 -54 -15 -71 0 -31 -34 -74 -58
-74 -7 0 -12 -9 -12 -19 0 -11 -5 -23 -11 -26 -6 -4 -8 -13 -5 -20 7 -19 -12
-32 -57 -40 -20 -4 -40 -11 -43 -16 -3 -5 -16 -6 -30 -3 -13 3 -24 4 -24 1 0
-3 16 -40 35 -83 19 -42 35 -81 35 -86 0 -23 -90 -102 -157 -139 -68 -37 -73
-42 -73 -72 0 -26 10 -43 50 -82 36 -35 54 -63 64 -99 17 -57 14 -66 -20 -66
-14 0 -46 -11 -72 -25 -26 -14 -58 -25 -72 -26 -14 -1 -36 -5 -50 -10 -18 -6
-14 -7 17 -3 34 5 44 2 49 -11 4 -9 14 -15 23 -14 49 4 60 -2 82 -48 22 -46
22 -46 40 -25 21 26 36 28 61 6 12 -12 21 -14 30 -7 23 18 90 26 99 11 12 -18
11 -62 -2 -75 -14 -14 31 -155 48 -148 7 2 15 0 18 -5 3 -5 30 0 61 10 l55 19
44 -42 c53 -49 56 -73 14 -113 -30 -29 -30 -29 -7 -34 33 -8 33 -32 2 -100
-19 -41 -35 -62 -54 -70 -24 -10 -28 -17 -29 -61 -1 -57 -10 -78 -61 -137 -34
-38 -56 -89 -44 -101 2 -3 34 -5 69 -6 36 -1 79 -9 97 -17 18 -9 51 -21 73
-28 22 -7 48 -19 57 -27 11 -10 26 -13 43 -9 17 4 27 2 31 -8 7 -17 93 -56
126 -56 28 0 42 -9 51 -34 7 -17 9 -17 33 -1 32 21 54 13 54 -20 0 -20 5 -25
24 -25 13 0 29 -7 36 -15 7 -8 20 -15 30 -15 10 0 34 7 53 15 44 18 48 18 45
3 -2 -8 6 -12 17 -11 145 15 195 10 195 -18 0 -14 7 -19 30 -19 17 0 33 -7 39
-17 8 -15 26 -19 95 -22 54 -2 86 -7 86 -14 0 -8 3 -8 11 0 7 7 4 21 -11 45
-11 20 -18 42 -15 49 3 8 29 29 58 47 64 42 103 36 127 -17 l15 -33 62 5 c38
4 79 1 105 -6 37 -11 55 -10 123 5 l80 18 -3 44 c-3 35 -9 46 -29 55 -22 10
-25 16 -20 47 4 25 2 37 -9 41 -18 7 -18 50 1 83 8 14 14 40 15 58 0 49 15 69
57 77 47 8 59 18 84 67 24 48 38 48 135 3 68 -31 75 -37 68 -57 -3 -13 -10
-28 -14 -33 -15 -19 48 -74 132 -116 116 -58 116 -58 77 -89 l-32 -27 22 -22
c13 -13 21 -31 18 -41 -4 -16 -1 -17 30 -8 27 7 40 6 59 -7 13 -8 24 -20 24
-25 0 -6 8 -10 18 -10 26 0 50 -29 54 -65 3 -26 8 -31 40 -36 20 -3 48 -13 63
-23 27 -17 27 -17 52 13 29 34 44 38 66 17 12 -12 22 -7 74 42 44 41 64 68 72
97 6 22 18 51 27 63 14 20 22 23 53 17 20 -4 54 -6 76 -6 51 0 115 -17 136
-36 15 -13 25 -10 90 22 69 35 73 36 86 19 13 -18 15 -18 42 -3 28 16 29 16
50 -12 12 -15 21 -38 21 -50 0 -11 14 -34 31 -50 26 -24 40 -29 83 -29 42 0
62 -6 100 -31 25 -17 62 -35 80 -39 l34 -8 6 82 c8 100 2 217 -14 276 -6 26
-9 67 -5 97 5 45 13 59 50 95 28 28 68 53 114 71 42 17 80 40 95 58 30 35 65
137 50 147 -5 4 -21 26 -36 49 -15 23 -47 55 -71 72 -25 17 -47 38 -51 46 -16
42 3 110 41 150 10 11 31 36 46 56 31 41 31 42 -49 82 -100 50 -130 124 -81
198 20 31 59 55 215 136 17 9 32 22 32 29 0 19 69 117 106 149 33 29 34 32 23
65 -7 19 -13 40 -15 47 -2 7 -20 23 -41 36 l-38 24 -6 -48 c-8 -58 -58 -169
-93 -204 -33 -33 -84 -34 -114 -2 -12 13 -29 45 -38 73 -32 99 -35 104 -64
104 -15 0 -45 13 -66 28 -33 24 -44 27 -71 19 -44 -13 -91 -2 -147 33 -38 24
-52 42 -75 93 -28 61 -67 102 -124 128 -22 10 -31 7 -69 -19 -55 -38 -88 -75
-122 -134 -15 -26 -43 -61 -63 -78 l-35 -31 -110 3 c-106 4 -110 5 -132 32
l-22 29 -52 -47 c-55 -48 -72 -53 -119 -35 -44 16 -73 49 -84 95 l-11 42 -61
7 c-70 7 -190 40 -221 60 -12 7 -36 16 -53 20 -44 9 -115 76 -158 149 -19 32
-66 92 -105 133 -39 40 -78 89 -85 107 -8 19 -27 47 -43 63 -16 16 -36 42 -45
58 -8 17 -33 45 -55 62 -27 22 -57 63 -88 123 -27 50 -53 95 -59 99 -17 14
-248 -5 -298 -24 -50 -19 -48 -16 -66 -130 -12 -79 -23 -104 -61 -143 -45 -45
-96 -67 -155 -67 -44 0 -57 5 -98 39 -64 53 -88 100 -86 174 1 31 10 73 19 92
10 19 20 58 24 87 6 50 5 53 -28 80 -18 15 -45 52 -60 81 -29 56 -32 58 -60
37z"><title>Echternach</title></path></a>
<a xlink:href="http://caza.lu/location/luxembourg/mersch/" target="_blank" title="Mersch">
<path fill="#e74c3c" d="M8415 9933 c-11 -3 -48 -23 -82 -46 -47 -29 -63 -46 -63 -62 0 -16
-9 -26 -30 -35 -27 -11 -32 -10 -65 19 -45 39 -80 42 -71 7 9 -37 -9 -74 -41
-82 -55 -14 -102 -54 -109 -93 -3 -20 -17 -63 -29 -96 -30 -79 -38 -115 -25
-115 6 0 15 -11 20 -24 5 -13 21 -32 36 -43 53 -36 107 -90 101 -100 -4 -6
-24 -14 -44 -18 -21 -4 -58 -21 -83 -37 -25 -17 -72 -41 -105 -54 -53 -20 -60
-25 -57 -48 2 -19 -4 -29 -27 -41 -17 -8 -36 -15 -44 -15 -10 0 -16 -17 -20
-57 -3 -32 -12 -62 -20 -68 -9 -6 -11 -18 -7 -29 11 -32 -1 -66 -24 -71 -11
-3 -49 -4 -83 -2 -60 2 -63 1 -97 -37 -41 -44 -46 -81 -20 -146 10 -24 14 -53
11 -70 -5 -24 -1 -33 20 -50 22 -17 25 -25 17 -38 -6 -9 -20 -19 -30 -20 -10
-2 -29 -13 -41 -25 -20 -18 -22 -28 -18 -81 2 -34 14 -80 25 -104 23 -47 18
-65 -21 -77 -10 -4 -19 -11 -19 -17 0 -10 -25 -45 -76 -106 -38 -45 -48 -74
-45 -129 1 -33 -2 -44 -19 -53 l-21 -11 23 -32 c12 -18 28 -36 35 -40 20 -12
16 -29 -14 -54 l-28 -23 42 6 c28 4 48 2 58 -6 13 -11 18 -10 28 4 19 26 39
11 75 -53 26 -48 38 -60 72 -71 30 -10 40 -19 40 -34 0 -29 -10 -40 -47 -55
-18 -8 -33 -17 -33 -21 0 -4 12 -19 27 -34 25 -25 26 -29 14 -62 -10 -26 -10
-39 -2 -47 6 -6 11 -29 11 -50 0 -30 -4 -40 -20 -44 -21 -6 -27 -28 -10 -38
19 -12 10 -36 -19 -46 -21 -7 -28 -15 -24 -28 3 -11 -3 -24 -15 -32 -26 -19
-34 -60 -16 -83 19 -26 18 -55 -3 -78 -14 -16 -15 -21 -2 -44 7 -15 31 -46 51
-69 33 -38 37 -47 35 -91 -2 -45 -4 -49 -29 -52 -23 -3 -28 -8 -28 -32 0 -16
-6 -33 -13 -37 -12 -7 -31 -43 -23 -43 2 0 19 7 38 15 50 20 91 7 98 -30 4
-23 13 -31 38 -39 29 -8 36 -6 63 20 25 24 37 28 77 27 26 -1 69 -2 95 -2 27
0 55 -5 63 -12 9 -7 31 -9 59 -6 36 5 45 4 45 -8 0 -8 9 -15 20 -15 10 0 24
-8 29 -17 30 -51 38 -56 64 -38 13 8 49 18 78 22 48 6 59 12 101 56 41 44 49
49 63 37 23 -20 35 3 23 44 -13 41 4 83 37 96 39 15 150 13 164 -3 26 -32 71
-135 71 -163 0 -17 6 -37 14 -43 23 -19 107 14 152 60 31 32 45 39 76 39 39 0
61 -22 57 -58 -1 -9 0 -21 1 -27 1 -5 3 -30 4 -55 2 -25 6 -69 11 -98 5 -35 4
-56 -2 -60 -6 -4 -13 -17 -17 -29 -6 -20 -4 -23 19 -23 32 0 84 27 152 77 28
22 71 45 95 52 24 7 58 17 75 22 18 6 37 8 42 5 5 -3 14 1 21 9 16 19 56 19
64 0 7 -20 45 -19 68 2 18 16 21 16 65 -7 25 -14 47 -31 50 -38 4 -8 16 -10
39 -6 40 7 54 -13 34 -50 -9 -19 -9 -27 1 -44 10 -16 10 -26 1 -48 -15 -32 -8
-43 19 -26 13 9 25 9 38 3 10 -6 27 -7 39 -4 15 4 28 -2 41 -18 l18 -23 114
13 c106 12 116 15 150 46 20 18 46 36 57 39 12 4 19 13 16 20 -3 7 1 18 8 24
27 22 132 73 147 71 26 -4 65 20 78 48 11 22 9 29 -12 58 -14 17 -25 37 -25
43 0 7 19 24 42 39 24 16 46 31 51 34 4 3 2 18 -4 33 -10 21 -10 32 -1 47 7
10 12 29 12 42 0 13 6 32 14 42 10 14 11 25 5 37 -5 10 -6 33 -1 55 10 43 4
110 -9 119 -21 12 -6 36 49 76 93 69 122 88 138 88 8 0 31 7 50 15 29 12 34
18 29 35 -5 16 2 30 29 56 20 20 34 40 31 45 -10 15 47 60 93 72 28 7 47 19
52 32 5 11 27 38 50 60 42 40 73 95 85 150 4 17 15 48 25 70 9 22 20 65 24 95
7 66 30 133 45 138 6 2 24 -10 40 -27 20 -21 38 -31 58 -31 17 0 52 -7 79 -15
27 -8 68 -15 91 -15 23 0 54 -5 70 -11 15 -6 81 -12 145 -12 l118 -2 6 29 c3
16 23 47 44 70 49 54 56 70 65 139 6 49 11 61 33 74 32 18 78 103 56 103 -7 0
-21 12 -30 26 -17 25 -16 26 13 56 l31 30 -20 34 c-22 38 -31 40 -85 20 -46
-17 -109 -27 -129 -19 -16 6 -20 69 -4 75 6 2 0 29 -15 65 -30 74 -31 90 -7
96 11 3 7 5 -10 6 -15 0 -30 -3 -33 -9 -8 -13 -52 -13 -60 0 -4 7 -14 5 -28
-5 -34 -24 -50 -18 -80 31 -24 40 -31 45 -54 40 -17 -5 -31 -2 -44 10 -13 12
-29 15 -53 11 -41 -7 -56 6 -56 48 0 30 3 32 51 43 28 7 58 12 68 12 9 0 26 7
38 15 19 13 21 19 11 40 -14 31 -22 31 -36 0 -9 -19 -18 -24 -45 -23 -19 1
-38 -2 -43 -5 -18 -11 -30 8 -46 73 -19 77 -31 104 -61 145 -20 27 -25 30 -52
22 -70 -21 -94 -39 -101 -74 -4 -24 -14 -37 -30 -43 -13 -5 -24 -16 -24 -25 0
-23 -24 -18 -82 19 -87 56 -130 98 -125 123 2 13 -3 29 -13 38 -24 22 -91 55
-110 55 -20 0 -40 19 -40 38 0 22 -52 57 -85 57 -20 0 -30 5 -31 15 0 8 -8 29
-17 47 -22 41 -21 55 2 95 37 68 32 140 -16 211 -24 34 -25 41 -14 77 7 22 9
45 5 51 -9 14 -96 2 -152 -22 -54 -23 -88 -24 -138 -3 -50 21 -108 22 -131 2
-34 -29 -133 -78 -157 -78 -33 0 -43 17 -44 80 -2 149 -55 149 -223 1 -77 -68
-135 -112 -238 -180 -46 -31 -97 -65 -115 -77 -63 -42 -116 -35 -116 15 0 37
-43 61 -114 65 -46 3 -73 10 -86 21 -29 26 -34 54 -15 75 15 17 16 24 5 49
-18 45 -31 51 -111 54 -59 2 -87 9 -141 35 -37 18 -76 32 -86 32 -23 0 -48 25
-34 34 6 3 12 22 14 41 5 40 3 40 -87 48 -27 3 -57 7 -65 10 -8 2 -24 2 -35 0z"><title>Mersch</title></path></a>
<a xlink:href="http://caza.lu/location/luxembourg/grevenmacher/" target="_blank" title="Grevenmacher">
<path fill="#95a5a6" d="M13756 8002 c-13 -40 -52 -75 -91 -81 -38 -6 -40 -8 -46 -52 -4 -26
-13 -57 -19 -69 -11 -20 -10 -25 5 -36 13 -10 16 -21 11 -48 -6 -29 -4 -36 9
-36 17 0 35 -38 35 -72 0 -12 7 -29 15 -38 29 -32 -8 -55 -116 -75 -78 -15
-104 -16 -141 -7 -24 6 -68 9 -96 5 -68 -8 -100 2 -108 32 -5 20 -12 25 -39
25 -18 0 -43 -9 -56 -19 l-24 -19 23 -31 c30 -41 28 -56 -11 -80 -30 -18 -36
-19 -72 -6 -22 8 -58 14 -80 15 -23 0 -58 9 -80 20 -22 11 -49 20 -61 20 -14
0 -25 8 -29 20 -3 11 -12 21 -18 22 -7 0 -25 2 -42 4 -16 2 -47 6 -67 10 -32
5 -74 -4 -154 -33 -5 -2 -21 5 -34 17 -13 11 -37 20 -57 20 -25 0 -36 5 -42
22 -5 14 -10 17 -15 10 -13 -21 -37 -13 -50 18 -7 17 -15 27 -19 24 -3 -4 -22
1 -41 10 -19 9 -42 16 -51 16 -9 0 -28 9 -42 20 -14 11 -37 20 -50 20 -14 0
-38 11 -55 25 -16 14 -42 25 -57 25 -14 0 -37 7 -49 16 -15 11 -53 17 -119 20
-53 3 -101 9 -107 13 -6 5 -63 12 -126 15 -140 6 -247 20 -320 40 -30 9 -64
16 -75 16 -12 0 -26 5 -32 11 -15 15 -21 2 -32 -74 -5 -35 -16 -77 -24 -93 -8
-16 -20 -55 -27 -87 -7 -31 -19 -62 -27 -68 -7 -6 -13 -17 -13 -23 0 -6 -22
-33 -50 -60 -27 -27 -52 -57 -55 -67 -4 -11 -18 -21 -33 -25 -57 -12 -92 -33
-92 -56 -1 -27 -27 -61 -54 -71 -15 -6 -17 -10 -8 -19 7 -7 12 -18 12 -25 0
-15 -62 -48 -110 -57 -50 -11 -166 -98 -162 -122 12 -62 13 -108 3 -135 -8
-24 -8 -36 0 -46 9 -10 9 -20 0 -41 -33 -71 -42 -111 -29 -131 15 -24 -9 -65
-53 -89 -35 -21 -36 -29 -4 -62 l25 -27 -22 -46 c-13 -26 -30 -47 -38 -47 -8
0 -24 -7 -34 -15 -11 -8 -28 -13 -38 -9 -10 3 -38 -7 -65 -23 -42 -24 -45 -28
-25 -31 13 -2 38 3 55 11 22 10 45 13 72 8 35 -6 40 -10 38 -31 -3 -25 -2 -25
80 -25 63 0 88 -4 110 -19 25 -17 29 -17 51 -2 24 15 24 17 9 47 -25 51 -10
63 88 70 46 3 107 9 135 14 48 7 52 6 73 -20 12 -16 24 -39 27 -52 7 -26 24
-28 89 -13 21 5 44 6 50 1 5 -4 48 -8 95 -10 72 -2 87 -5 101 -23 l16 -20 74
22 c41 12 84 27 96 33 18 8 27 7 41 -6 19 -18 59 -12 110 15 19 10 27 8 53
-11 17 -13 43 -27 58 -30 33 -9 79 -74 87 -123 4 -21 12 -38 20 -38 7 0 22
-12 34 -27 15 -19 25 -24 34 -18 69 51 67 50 83 29 11 -15 14 -47 12 -144 -3
-153 3 -182 40 -179 81 6 81 7 81 -75 0 -66 -3 -77 -22 -90 -12 -9 -31 -16
-41 -16 -16 0 -17 -3 -8 -14 8 -10 10 -30 6 -61 -9 -55 7 -78 72 -107 23 -10
44 -26 47 -36 2 -9 8 -65 12 -124 7 -114 22 -148 65 -148 12 0 23 -8 26 -19 4
-17 11 -19 54 -14 41 5 52 3 64 -13 8 -10 15 -25 15 -33 0 -8 15 -29 34 -46
19 -17 38 -45 41 -61 16 -74 27 -81 145 -86 25 -1 59 -8 77 -15 18 -7 55 -13
83 -13 37 0 50 -4 50 -14 0 -8 -4 -18 -10 -21 -17 -10 -11 -25 9 -25 11 0 34
-13 52 -30 23 -20 36 -26 45 -19 6 5 19 7 27 3 17 -6 33 -42 23 -51 -3 -3 1
-15 9 -27 8 -11 15 -33 15 -49 0 -26 2 -28 29 -22 39 8 54 -20 54 -100 0 -49
1 -56 9 -35 41 103 67 129 111 109 18 -8 30 -8 45 0 31 17 47 14 75 -15 25
-24 25 -25 32 -5 10 34 55 27 95 -14 19 -19 40 -35 48 -35 7 0 27 -14 44 -30
16 -17 42 -33 56 -36 44 -11 58 -30 58 -76 -1 -36 -4 -43 -25 -48 -43 -10 -37
-30 8 -30 44 0 47 -7 43 -77 -1 -24 8 -29 24 -14 5 5 39 11 76 13 94 5 140 39
189 135 56 111 166 239 228 268 32 14 44 28 65 75 14 32 26 74 26 94 0 20 8
53 19 74 10 20 24 62 32 92 14 60 29 98 142 360 86 199 109 290 81 321 -14 15
-31 19 -90 19 -67 0 -75 2 -102 30 -53 53 -50 102 11 205 42 70 76 105 122
126 46 21 180 154 216 214 13 22 40 62 61 90 20 27 47 75 58 106 34 90 96 139
197 154 23 4 61 19 85 35 24 16 56 32 71 36 37 9 83 55 177 180 106 139 218
252 258 260 18 4 32 9 32 12 0 3 -40 46 -88 96 -63 65 -91 101 -95 125 -14 66
37 120 116 124 26 1 47 4 47 6 0 2 -11 16 -25 33 -14 16 -25 36 -25 43 0 14
-10 18 -70 31 -19 3 -51 20 -70 35 -29 25 -43 29 -93 29 -49 0 -64 4 -91 26
-37 32 -55 61 -56 92 0 25 -8 27 -45 10 -21 -9 -29 -9 -42 5 -15 14 -21 13
-84 -19 -79 -39 -99 -42 -106 -14 -6 24 -62 42 -104 33 -16 -3 -43 0 -60 7
-37 16 -55 2 -62 -46 -7 -45 -22 -69 -59 -95 -18 -13 -49 -41 -69 -64 -37 -40
-37 -40 -58 -21 -21 19 -22 19 -54 -12 -40 -39 -47 -39 -77 -7 -16 18 -34 25
-59 25 -50 0 -62 11 -68 59 -5 37 -8 41 -35 41 -21 0 -31 6 -38 24 -8 22 -13
24 -49 19 -45 -6 -76 10 -66 35 3 9 -7 26 -27 43 l-33 27 28 29 28 30 -86 42
c-47 24 -85 48 -85 54 0 6 -12 21 -27 32 -24 20 -25 25 -15 53 11 33 4 46 -21
36 -9 -3 -21 4 -31 18 -9 12 -16 19 -16 15 0 -4 -9 -3 -19 3 -16 8 -21 6 -25
-8z"><title>Grevenmacher</title></path></a>
<a xlink:href="http://caza.lu/location/luxembourg/capellen/" target="_blank" title="Capellen">
<path fill="#d35400" d="M7180 7196 c-14 -8 -36 -19 -50 -25 -14 -7 -38 -20 -55 -29 -19 -10
-55 -17 -95 -18 l-65 -1 -86 -81 c-47 -44 -104 -89 -125 -100 -21 -11 -56 -43
-77 -72 -34 -45 -42 -51 -66 -45 -23 5 -38 -4 -101 -59 -54 -47 -94 -72 -144
-91 -63 -23 -70 -24 -86 -10 -12 10 -26 14 -43 10 -19 -5 -31 -1 -48 16 -25
25 -40 26 -102 7 -35 -11 -39 -10 -68 18 -45 42 -69 99 -58 137 13 45 -4 61
-43 41 -16 -9 -47 -14 -71 -12 -35 2 -43 7 -45 26 -5 30 -23 28 -57 -8 -21
-22 -38 -30 -62 -30 -24 0 -33 -5 -33 -16 0 -9 -17 -37 -39 -63 -21 -25 -54
-71 -73 -101 -35 -53 -128 -150 -146 -150 -5 0 -14 -17 -20 -39 -7 -21 -19
-44 -27 -51 -8 -7 -15 -19 -15 -28 0 -8 -11 -34 -25 -57 -13 -23 -22 -45 -18
-48 3 -3 0 -21 -7 -39 -6 -18 -15 -60 -20 -93 -7 -51 -5 -66 13 -102 18 -37
25 -43 51 -43 19 0 43 -10 60 -25 17 -15 42 -25 59 -25 18 0 59 -17 99 -40 49
-30 74 -39 92 -34 34 8 64 -3 71 -27 5 -14 15 -19 45 -19 27 0 42 -6 49 -17 8
-15 12 -16 22 -5 22 21 57 14 81 -18 12 -16 30 -30 41 -30 32 0 56 -19 77 -60
23 -44 26 -93 8 -107 -7 -6 -29 -16 -49 -22 -44 -14 -58 -55 -34 -101 20 -38
19 -56 -4 -77 -28 -26 -38 -121 -17 -161 9 -17 16 -51 16 -76 0 -37 6 -51 30
-76 17 -17 30 -39 30 -48 0 -32 -161 -172 -198 -172 -5 0 -20 11 -33 25 -13
13 -31 25 -40 25 -23 0 -80 -26 -108 -50 -22 -19 -23 -22 -7 -38 9 -10 16 -26
16 -35 0 -9 5 -19 10 -22 6 -3 10 -19 10 -35 0 -23 -11 -37 -55 -72 -30 -23
-71 -66 -91 -95 -31 -46 -35 -57 -31 -100 2 -26 9 -60 15 -75 8 -19 8 -36 2
-54 -6 -14 -10 -44 -10 -68 0 -51 -19 -71 -105 -110 -74 -34 -70 -32 -141 -86
-33 -24 -93 -63 -134 -85 l-75 -40 3 -65 c5 -103 15 -124 66 -139 33 -9 50
-10 64 -2 12 6 30 11 41 11 11 0 22 9 26 20 11 33 48 52 89 44 42 -7 86 -53
86 -89 0 -12 7 -36 15 -51 20 -40 19 -70 -5 -94 -16 -16 -18 -25 -11 -39 6
-10 10 -38 10 -62 -1 -24 2 -59 6 -77 6 -25 3 -38 -10 -52 -10 -11 -21 -20
-25 -20 -4 0 -24 -7 -44 -15 l-36 -15 30 -47 c17 -26 30 -52 30 -59 0 -6 13
-27 30 -45 16 -19 32 -51 36 -72 6 -36 7 -37 24 -22 21 19 120 41 145 32 13
-6 16 -14 11 -38 -3 -19 0 -42 9 -59 16 -30 20 -91 8 -104 -8 -7 -10 -24 -15
-128 l-3 -58 30 -2 c16 0 55 0 85 2 51 2 57 5 95 48 22 25 45 55 50 66 8 15
23 23 55 26 25 3 60 16 77 29 20 15 49 25 75 27 102 6 210 39 304 93 31 17 40
28 37 42 -16 58 94 80 172 36 l40 -23 38 39 c23 26 37 50 37 67 0 14 14 47 30
74 30 46 31 47 80 45 34 -2 55 2 67 13 29 26 90 33 113 13 10 -9 16 -24 13
-32 -8 -19 17 -35 34 -22 6 6 22 8 35 4 28 -9 79 -55 72 -66 -2 -4 -2 -20 2
-34 7 -29 43 -35 64 -10 7 8 23 15 36 15 12 0 26 5 29 10 3 6 19 10 35 10 27
0 28 2 25 40 -3 32 0 42 16 50 10 6 23 8 28 5 5 -3 17 -2 26 1 12 5 14 14 10
34 -5 22 -2 28 14 33 12 3 25 17 31 32 17 44 111 145 165 177 28 16 40 27 28
23 -12 -3 -24 -1 -28 5 -3 5 -14 10 -23 10 -22 1 -55 47 -48 66 4 11 0 13 -18
8 -49 -12 -46 55 4 81 18 9 30 24 30 35 0 10 10 26 22 34 12 9 20 17 17 19 -2
2 -33 9 -69 16 -99 19 -120 34 -120 80 0 55 24 106 65 137 36 27 105 121 105
142 0 6 14 27 30 45 17 19 30 41 30 49 0 8 6 23 14 33 14 19 15 19 54 -3 25
-14 57 -22 86 -22 45 0 127 16 156 29 16 8 40 89 40 137 0 17 7 48 15 67 8 20
15 47 15 60 0 22 56 87 76 87 5 0 15 12 22 28 7 15 30 40 52 56 30 22 40 37
40 57 0 15 -4 31 -10 34 -17 11 -11 72 11 110 20 33 20 37 5 69 -9 19 -16 38
-16 44 0 14 80 92 95 92 15 0 25 22 25 56 0 17 9 30 29 42 25 14 43 50 40 78
-2 16 58 64 80 64 34 0 54 14 58 40 4 25 29 76 42 84 12 8 91 -21 113 -40 9
-9 23 -33 29 -53 7 -20 23 -53 36 -73 15 -25 23 -53 23 -81 l0 -44 46 -7 c26
-3 94 -6 152 -6 103 0 104 0 99 23 -20 76 -20 77 13 140 18 34 39 69 47 78 17
20 7 47 -54 138 -24 35 -43 69 -43 75 0 7 -13 25 -30 41 -35 34 -38 51 -9 60
19 6 20 8 3 26 -9 10 -22 19 -29 19 -6 0 -24 13 -39 29 -18 18 -47 34 -77 41
-56 14 -71 28 -65 63 6 36 24 60 62 85 23 15 34 30 34 46 0 13 7 40 15 59 8
20 15 48 15 61 0 14 7 45 15 69 12 35 12 50 2 87 -7 25 -12 71 -11 103 1 48
-2 57 -17 57 -10 0 -35 -16 -56 -36 -36 -35 -118 -74 -154 -74 -27 0 -81 62
-75 85 3 11 -6 48 -21 83 l-27 62 -63 0 c-63 0 -63 0 -57 -25 5 -19 2 -25 -10
-25 -13 0 -14 -4 -5 -24 17 -36 4 -72 -31 -86 -23 -9 -33 -10 -44 -1 -11 9
-18 5 -36 -24 -24 -39 -81 -69 -112 -59 -11 3 -43 -7 -78 -25 -67 -35 -82 -37
-100 -16 -10 12 -10 18 0 30 19 23 5 47 -25 39 -19 -5 -25 -2 -25 10 0 12 -9
16 -35 16 -19 0 -46 5 -60 12 -21 9 -31 9 -46 0 -15 -10 -25 -9 -49 3 -44 23
-65 18 -103 -21 l-34 -36 -59 14 c-54 14 -59 18 -62 44 -5 44 -17 49 -57 24
-30 -18 -41 -21 -60 -12 -21 10 -24 17 -21 58 1 31 8 49 19 56 9 5 17 17 17
27 0 10 13 35 30 56 l30 38 -30 34 c-36 40 -70 105 -70 131 0 11 6 25 14 32
16 12 12 35 -12 62 -13 16 -12 39 4 81 5 13 1 13 -33 2 -78 -28 -93 -19 -93
61 0 48 -8 53 -50 30z"><title>Capellen</title></path></a>
<a xlink:href="http://caza.lu/location/luxembourg/luxembourg/" target="_blank" title="Luxembourg">
<path fill="#8e44ad" d="M9338 6384 c-4 -3 -18 -8 -30 -10 -91 -11 -135 -27 -203 -73 -105
-71 -151 -92 -179 -85 -21 5 -25 1 -31 -25 -4 -17 -11 -33 -16 -36 -5 -4 -9
-20 -9 -36 0 -23 -10 -40 -40 -66 -22 -20 -40 -42 -40 -49 0 -16 32 -34 61
-34 12 0 38 -15 59 -32 78 -68 105 -88 117 -88 13 0 19 -40 6 -40 -5 0 -14 -4
-21 -9 -11 -6 -8 -20 16 -67 17 -33 43 -75 59 -95 16 -20 35 -55 42 -77 15
-43 16 -40 -65 -165 l-21 -32 25 -58 c21 -50 23 -60 11 -68 -20 -14 -348 -5
-377 10 -20 11 -22 17 -16 61 5 41 3 54 -16 80 -12 17 -26 45 -31 63 -5 18
-12 37 -17 42 -8 12 -58 45 -67 45 -3 0 -15 -20 -26 -44 -19 -45 -64 -86 -91
-86 -23 0 -48 -34 -55 -74 -4 -26 -13 -40 -32 -49 -20 -10 -25 -19 -23 -39 2
-19 -6 -33 -33 -54 -20 -16 -50 -42 -67 -57 -28 -26 -29 -29 -14 -46 21 -24
20 -53 -4 -96 -22 -39 -26 -70 -10 -80 6 -3 10 -25 10 -49 0 -38 -5 -48 -46
-86 -25 -23 -50 -53 -55 -66 -5 -14 -17 -27 -26 -30 -37 -11 -46 -21 -59 -64
-7 -25 -19 -55 -25 -67 -7 -13 -9 -40 -6 -67 4 -26 2 -48 -3 -51 -6 -3 -10
-16 -10 -27 0 -12 -11 -36 -25 -54 -26 -34 -31 -35 -180 -50 -44 -4 -71 -2
-98 9 -33 14 -37 14 -37 1 0 -9 -14 -29 -30 -46 -17 -16 -33 -41 -37 -56 -9
-35 -60 -103 -105 -137 -65 -49 -77 -119 -24 -143 15 -8 55 -17 88 -20 50 -4
61 -9 71 -29 9 -20 6 -28 -15 -51 -32 -34 -44 -78 -23 -86 22 -8 18 -35 -7
-56 l-22 -17 36 -12 c20 -7 47 -9 61 -6 14 4 28 2 31 -4 5 -7 20 -4 47 10 22
11 46 18 52 16 7 -3 22 4 34 15 19 18 24 18 50 6 16 -7 29 -23 31 -36 3 -16
10 -22 28 -22 22 0 24 3 18 38 -8 50 4 58 93 67 70 7 73 6 84 -17 10 -22 15
-24 47 -18 21 4 62 19 92 32 30 14 84 31 120 37 36 7 88 22 115 32 55 21 92
24 97 9 2 -7 14 -6 35 2 30 11 35 10 55 -12 13 -13 21 -32 20 -42 -2 -9 6 -21
16 -27 32 -17 45 -61 29 -99 -20 -47 -1 -122 30 -122 12 0 25 -4 28 -10 10
-17 42 -11 99 17 62 30 86 26 86 -15 0 -44 57 -142 83 -143 31 -1 81 -32 86
-54 2 -11 -11 -31 -34 -52 -26 -24 -34 -38 -27 -45 7 -7 19 -4 40 11 35 24 61
27 87 7 15 -11 17 -21 12 -59 l-7 -46 64 -31 c39 -18 80 -30 105 -30 41 0 136
-39 143 -59 1 -5 26 -15 53 -21 28 -6 84 -21 125 -32 41 -11 89 -21 105 -23
38 -4 78 -10 130 -20 38 -6 42 -5 53 20 16 35 63 32 72 -5 4 -17 12 -24 26
-23 34 4 66 -19 61 -44 -4 -19 2 -25 32 -33 20 -5 47 -11 60 -12 19 -2 28 -13
39 -46 13 -41 13 -45 -8 -67 -16 -17 -19 -28 -12 -42 5 -10 13 -47 16 -82 5
-38 15 -76 27 -92 24 -35 24 -59 0 -59 -10 0 -21 -7 -25 -15 -3 -8 -12 -15
-20 -15 -8 0 -25 -10 -38 -22 -14 -11 -45 -29 -69 -38 -26 -11 -45 -25 -48
-36 -2 -10 -10 -23 -18 -29 -12 -9 -7 -15 24 -35 34 -23 38 -30 39 -70 1 -25
-1 -51 -3 -58 -6 -15 -57 -16 -84 -1 -16 8 -25 7 -40 -7 -10 -9 -19 -23 -19
-30 0 -23 69 -67 118 -75 26 -4 58 -10 72 -14 25 -6 25 -5 22 52 -4 75 24 122
86 141 23 8 42 18 42 23 0 5 23 20 51 35 l51 26 27 -25 c21 -19 34 -23 70 -21
24 2 50 -1 57 -7 10 -8 19 -6 36 5 12 9 30 16 38 16 9 0 26 20 38 45 12 25 30
49 40 52 9 4 25 18 36 31 14 18 24 22 46 17 16 -3 31 -2 35 4 3 6 16 11 28 11
17 0 25 9 34 38 6 20 9 51 7 67 -3 19 3 42 15 62 18 29 24 32 53 26 49 -9 59
-21 52 -59 -6 -30 -4 -34 16 -34 12 0 35 9 50 20 23 16 28 27 26 58 -1 20 -5
43 -9 50 -5 6 -6 16 -3 21 3 5 0 14 -8 20 -8 7 -24 37 -37 69 -12 31 -32 68
-45 82 -26 28 -54 90 -54 118 0 14 15 25 53 40 28 11 59 23 69 27 12 5 25 -6
49 -44 27 -41 36 -48 50 -40 17 8 16 12 -6 52 -28 48 -31 75 -11 102 10 14 11
25 4 39 -7 13 -5 29 8 57 17 38 17 40 -5 83 -15 28 -21 52 -16 65 6 19 14 21
80 21 71 0 75 -1 97 -30 20 -27 27 -30 80 -30 64 0 165 41 152 62 -14 23 -6
108 15 152 28 60 56 79 100 66 29 -8 34 -7 38 10 3 11 12 20 19 20 8 0 16 16
20 42 9 54 34 78 82 78 21 0 71 11 112 25 55 18 97 25 158 25 89 0 125 -12
175 -58 17 -16 31 -22 37 -16 14 14 -5 132 -25 154 -9 10 -18 30 -19 44 -2 15
-10 34 -18 44 -9 9 -25 36 -37 60 -14 26 -28 42 -40 42 -23 0 -71 37 -71 55 0
13 -39 36 -80 48 -15 4 -77 -14 -117 -34 -29 -15 -53 -5 -53 23 0 33 50 116
108 179 68 75 177 203 242 285 30 38 92 107 138 153 80 80 82 85 76 120 -4 22
-21 52 -44 76 -20 22 -40 48 -44 59 -6 19 -29 19 -93 0 -18 -5 -25 -1 -33 20
-5 15 -20 30 -33 35 -32 12 -55 72 -62 163 -4 43 -11 80 -16 84 -5 3 -5 13 1
25 10 17 6 22 -32 38 -65 28 -82 52 -81 114 0 29 -3 54 -8 57 -5 4 -12 20 -15
37 -6 30 -5 32 37 40 44 9 44 9 47 56 2 33 -1 47 -10 48 -7 1 -28 2 -47 3 -33
1 -36 4 -58 61 -18 45 -21 64 -13 77 12 21 14 178 2 178 -5 0 -18 -12 -31 -26
-26 -30 -51 -28 -67 5 -11 21 -13 21 -22 6 -5 -10 -14 -15 -20 -11 -14 8 -32
71 -32 108 0 36 -40 97 -64 98 -11 0 -29 9 -41 20 -21 20 -23 20 -94 3 -55
-13 -76 -14 -90 -6 -15 9 -35 6 -95 -13 -93 -29 -108 -30 -131 -4 -10 11 -27
19 -39 19 -11 -1 -40 2 -63 6 -37 6 -44 5 -50 -11 -14 -39 -40 -44 -53 -9 -10
27 -17 29 -74 16 -44 -11 -76 3 -76 31 0 9 -5 29 -12 44 -11 24 -15 25 -53 18
-22 -4 -69 -8 -105 -10 -36 -1 -71 -3 -79 -3 -11 -1 -11 -5 2 -19 28 -30 21
-59 -20 -87 -45 -30 -53 -31 -103 -5 -42 21 -144 28 -155 10 -3 -5 -15 -10
-25 -10 -14 0 -21 10 -26 34 -7 40 -30 53 -54 31 -10 -9 -35 -15 -63 -15 -60
0 -94 -14 -137 -54 -30 -29 -44 -35 -100 -40 -36 -3 -91 -9 -122 -12 -46 -5
-63 -3 -85 12 -21 13 -43 18 -85 16 -80 -4 -98 8 -96 60 1 24 -3 43 -10 46
-15 5 -16 42 -2 42 6 0 10 9 10 20 0 14 -7 20 -22 20 -13 1 -39 9 -58 18 -28
14 -42 15 -67 7 -18 -5 -33 -13 -33 -17 0 -17 -38 -7 -51 13 -8 11 -17 17 -21
13z"><title>Luxembourg</title></path></a>
<a xlink:href="http://caza.lu/location/luxembourg/remich/" target="_blank" title="Remich">
<path fill="#2c3e50" d="M12412 4713 c-31 -32 -95 -105 -142 -162 -47 -57 -127 -152 -178
-210 -95 -107 -165 -201 -157 -209 3 -3 11 0 18 6 20 17 124 27 150 14 12 -5
30 -13 40 -16 10 -3 23 -19 28 -36 8 -23 20 -32 49 -40 41 -11 54 -22 65 -58
4 -13 20 -43 36 -67 16 -24 29 -49 29 -57 0 -8 4 -18 8 -23 16 -20 32 -83 35
-137 1 -43 -2 -61 -17 -77 -25 -27 -37 -27 -67 5 -39 42 -78 57 -159 60 -55 3
-98 -3 -165 -21 -49 -13 -103 -25 -119 -27 -26 -3 -31 -9 -45 -59 -9 -31 -23
-66 -32 -79 -15 -23 -19 -23 -62 -14 -25 6 -50 8 -55 5 -5 -3 -18 -24 -30 -46
-20 -40 -19 -69 3 -142 6 -19 -1 -26 -64 -57 -61 -31 -80 -36 -140 -36 -69 0
-87 8 -108 45 -8 13 -38 20 -79 17 -17 -2 -20 -7 -16 -27 2 -14 8 -28 13 -31
13 -8 11 -72 -2 -80 -7 -4 -8 -22 -4 -51 5 -36 3 -47 -11 -58 -16 -11 -16 -16
-4 -45 7 -18 24 -43 38 -57 18 -18 22 -30 18 -49 -6 -22 -11 -25 -31 -20 -14
4 -34 1 -45 -6 -19 -12 -24 -9 -48 18 -15 17 -32 39 -37 48 -10 17 -13 17 -52
1 -41 -16 -41 -17 -31 -48 10 -28 34 -63 83 -119 8 -10 15 -29 15 -42 0 -19 6
-25 28 -28 21 -2 28 -9 30 -30 2 -16 0 -28 -5 -28 -10 0 -9 -52 1 -68 4 -7 4
-21 1 -32 -3 -11 -1 -25 5 -32 7 -7 22 -33 34 -58 12 -26 27 -44 35 -42 19 4
67 -43 82 -81 12 -29 11 -32 -21 -58 l-33 -28 32 -36 c35 -40 35 -39 -5 -142
-13 -34 -24 -65 -24 -70 0 -4 15 -14 33 -21 67 -27 82 -38 85 -63 2 -14 12
-29 25 -34 18 -9 38 -35 50 -69 1 -4 20 -1 41 8 52 22 109 21 129 -2 10 -10
17 -23 17 -29 0 -5 15 -14 33 -19 22 -6 37 -19 47 -42 l15 -33 65 6 c48 4 72
2 94 -10 15 -8 37 -15 48 -15 34 0 58 -20 80 -67 l22 -46 -22 -38 c-41 -70
-22 -131 30 -95 28 20 68 21 94 2 28 -21 26 -112 -4 -137 -12 -9 -22 -20 -22
-24 0 -10 92 6 124 22 40 21 73 5 81 -39 4 -23 -2 -52 -20 -97 -29 -70 -29
-70 39 -107 27 -15 31 -14 93 16 70 35 105 32 117 -8 4 -12 23 -24 51 -32 34
-10 59 -27 100 -71 30 -33 59 -59 64 -59 6 0 21 -16 34 -35 40 -59 72 -78 120
-72 23 2 50 8 59 12 13 5 28 -3 53 -28 32 -32 38 -35 68 -26 55 16 75 11 109
-28 69 -78 131 -143 137 -143 3 0 7 118 9 263 1 144 7 292 13 329 11 59 9 76
-10 152 -24 97 -26 137 -10 222 8 43 8 72 0 109 -6 28 -13 60 -15 72 -3 12
-25 85 -50 161 -25 77 -56 182 -70 234 -14 52 -30 106 -35 122 -20 50 -13 110
18 170 40 76 74 119 120 150 20 14 48 45 61 69 13 23 54 74 91 112 66 69 88
105 114 191 18 61 30 47 -200 229 -49 39 -113 92 -142 119 -51 47 -53 51 -53
101 0 49 3 56 48 103 63 68 165 117 221 107 22 -4 45 -13 52 -21 14 -17 62
-44 77 -44 5 0 12 10 15 21 5 17 -8 36 -54 85 -67 69 -89 121 -89 210 0 41 6
62 26 91 14 21 32 51 40 68 8 16 32 54 54 83 22 29 40 57 40 62 0 17 -22 22
-46 9 -52 -28 -64 46 -18 113 23 33 25 41 13 49 -8 5 -20 9 -27 9 -14 0 -84
48 -141 97 l-38 33 -23 -25 c-28 -30 -70 -34 -70 -6 0 28 -26 47 -45 31 -9 -8
-28 -10 -48 -6 -51 10 -72 -19 -70 -95 2 -52 -1 -62 -25 -84 -32 -30 -43 -31
-66 -6 -16 17 -17 29 -9 92 6 39 8 82 5 95 -4 22 -8 23 -43 18 l-39 -7 0 37
c0 20 -7 53 -17 74 -15 35 -30 47 -85 66 -10 3 -18 11 -18 19 0 7 -15 17 -32
22 -25 8 -34 16 -36 37 -2 17 -8 25 -16 22 -8 -3 -40 1 -72 10 -33 8 -96 17
-142 21 l-82 7 -58 -59z"><title>Remich</title></path></a>
<a xlink:href="http://caza.lu/location/luxembourg/esch-sur-alzette/" target="_blank" title="Esch-sur-Alzette">
<path fill="#7f8c8d" d="M8473 3770 c-23 -10 -59 -21 -80 -25 -63 -10 -115 -26 -164 -50 -47
-24 -158 -43 -179 -30 -8 5 -7 13 5 31 8 13 11 24 6 24 -5 0 -13 -4 -16 -10
-3 -5 -21 -10 -39 -10 -42 0 -46 -5 -33 -40 15 -39 2 -52 -62 -58 -50 -4 -51
-4 -62 27 -12 33 -36 41 -45 16 -4 -9 -17 -15 -33 -14 -30 2 -112 -33 -131
-56 -7 -8 -17 -15 -22 -15 -12 0 -97 -63 -98 -73 0 -4 -16 -23 -35 -43 -19
-19 -38 -47 -42 -62 -11 -46 -38 -86 -71 -107 -17 -11 -31 -25 -32 -31 0 -6
-7 -25 -15 -41 -12 -24 -23 -31 -54 -36 -21 -2 -60 -15 -87 -27 -77 -36 -102
-37 -114 -3 -6 15 -15 38 -21 50 -6 11 -8 26 -5 32 10 15 -33 36 -47 22 -29
-29 -87 3 -87 47 0 12 -5 22 -10 22 -11 0 -73 -32 -102 -53 -14 -9 -22 -9 -40
2 -19 12 -24 11 -40 -9 -10 -12 -20 -32 -22 -44 -3 -11 -7 -33 -10 -47 -7 -33
-94 -129 -117 -129 -10 0 -23 8 -28 19 -14 25 -61 43 -102 39 -30 -3 -34 -6
-34 -32 -1 -16 -6 -31 -13 -34 -6 -2 -27 -14 -47 -27 -67 -46 -254 -105 -328
-103 -15 0 -45 -11 -67 -26 -22 -14 -49 -26 -60 -26 -12 0 -47 -28 -85 -67
-63 -65 -67 -67 -127 -74 -84 -10 -156 -1 -162 20 -8 26 5 174 19 224 5 20 2
38 -10 61 -10 19 -16 44 -13 59 4 18 1 27 -8 27 -18 0 -67 -22 -79 -36 -5 -6
-22 -14 -37 -18 -35 -8 -62 18 -55 53 6 29 -15 76 -37 84 -8 3 -20 24 -26 46
-5 21 -18 49 -28 61 -16 20 -21 21 -41 11 -13 -8 -20 -18 -17 -27 14 -38 -43
-94 -96 -94 -28 -1 -57 -21 -72 -51 -13 -25 -29 -35 -69 -44 -23 -5 -27 -10
-21 -23 4 -9 9 -33 12 -53 3 -32 -2 -45 -43 -95 -26 -33 -49 -60 -50 -61 -1
-2 -24 -7 -52 -12 -28 -6 -79 -24 -114 -41 -48 -23 -73 -30 -99 -26 -41 6 -55
-3 -93 -62 -16 -24 -44 -52 -62 -63 l-34 -21 22 -43 22 -43 95 48 c119 60 187
90 204 90 17 0 56 -42 60 -67 12 -58 34 -114 66 -163 78 -122 88 -184 32 -196
-15 -3 -53 -18 -85 -32 -53 -25 -57 -29 -52 -54 14 -77 18 -88 37 -94 10 -3
24 -17 31 -31 6 -15 34 -37 68 -54 71 -35 89 -60 89 -120 0 -59 27 -95 83
-110 41 -11 87 -43 87 -62 0 -14 69 -91 93 -104 15 -8 28 -8 40 -1 26 14 64 2
72 -22 4 -13 13 -19 23 -16 85 24 153 17 207 -20 44 -29 108 -32 175 -7 45 17
84 46 86 64 1 5 2 13 3 18 0 5 7 16 15 24 18 18 146 12 186 -8 14 -7 38 -11
53 -8 21 4 37 -2 66 -25 l38 -31 22 22 c13 13 36 23 59 24 20 2 62 5 92 9 75
8 168 -27 190 -73 19 -38 93 -101 129 -109 14 -3 45 -9 68 -15 23 -5 53 -9 67
-9 14 0 40 -9 58 -20 18 -11 45 -20 59 -20 29 0 53 -22 69 -65 15 -40 6 -67
-30 -87 -36 -20 -38 -35 -7 -47 12 -5 33 -24 46 -42 21 -29 25 -43 23 -99 -2
-44 -9 -76 -23 -99 -22 -37 -22 -109 0 -201 6 -25 13 -55 16 -67 6 -27 26 -29
60 -7 22 15 28 14 75 -1 55 -18 86 -50 84 -86 0 -13 -8 -48 -17 -78 -10 -30
-17 -58 -17 -62 0 -5 32 7 72 26 45 22 87 35 112 35 35 0 45 -6 87 -52 36 -38
51 -49 61 -41 7 6 42 14 76 18 35 4 76 13 90 21 15 8 44 14 65 14 20 0 46 6
57 12 27 17 71 -7 84 -44 8 -22 5 -32 -17 -58 -15 -17 -27 -36 -27 -41 0 -5
20 -9 44 -9 24 0 63 -7 86 -15 24 -8 44 -14 45 -13 3 4 59 124 88 188 14 30
38 85 55 122 23 50 40 73 69 91 21 13 44 32 52 41 17 21 50 20 81 -1 23 -16
45 -17 189 -11 22 1 36 -4 43 -15 6 -11 22 -17 47 -17 50 0 69 -23 81 -96 7
-47 15 -63 37 -79 15 -11 36 -30 47 -41 12 -12 36 -25 53 -28 18 -4 35 -12 38
-17 4 -5 21 -9 40 -9 32 0 33 2 31 32 -2 18 -10 47 -18 63 -38 76 -27 170 34
284 20 37 34 49 97 77 86 40 109 42 145 13 25 -20 29 -20 64 -6 32 13 38 20
42 53 3 22 20 68 38 103 33 63 34 66 28 158 -5 103 13 230 36 244 27 18 52 8
94 -37 l42 -47 41 17 c78 31 121 18 121 -37 l0 -29 43 34 c23 18 50 43 60 55
10 13 24 23 30 23 36 1 38 17 7 81 -16 35 -30 76 -30 90 0 41 63 116 102 122
86 15 106 22 153 52 28 18 67 49 88 69 21 20 45 36 52 36 29 0 64 -23 69 -46
4 -16 11 -21 21 -17 9 3 50 -7 91 -22 54 -20 85 -26 112 -22 20 4 43 3 50 -2
8 -5 31 -2 55 6 35 13 54 13 110 3 73 -13 117 -8 117 14 0 7 10 26 21 41 20
24 26 26 68 21 25 -3 51 -6 56 -7 6 0 25 5 43 12 28 12 42 11 99 -4 36 -9 68
-15 70 -13 3 2 7 23 10 45 3 22 12 46 19 52 22 18 17 37 -9 32 -14 -3 -29 2
-37 11 -11 14 -10 22 3 49 9 17 28 59 41 92 l25 60 -24 20 c-13 11 -28 32 -34
46 -8 23 -5 31 24 59 33 32 33 33 17 56 -9 13 -24 24 -33 24 -22 0 -79 65 -79
90 0 15 -7 20 -24 20 -14 0 -28 -4 -31 -10 -3 -5 -28 -10 -54 -10 -41 0 -50 4
-70 31 -12 17 -20 37 -17 46 4 9 1 13 -6 10 -8 -3 -12 -20 -11 -48 2 -24 -1
-53 -7 -64 -5 -11 -10 -31 -12 -45 -2 -21 -9 -26 -38 -28 -19 -2 -39 -8 -44
-13 -6 -5 -21 -9 -34 -9 -14 0 -35 -11 -47 -24 -12 -13 -28 -25 -36 -28 -8 -3
-14 -18 -14 -38 0 -36 -3 -39 -84 -64 -43 -14 -58 -15 -82 -6 -21 9 -33 9 -42
2 -21 -17 -63 -9 -84 16 -16 21 -22 22 -45 12 -15 -7 -24 -18 -22 -25 4 -8
-12 -17 -45 -25 -72 -17 -91 -44 -91 -131 0 -74 -11 -87 -62 -74 -13 4 -48 7
-76 9 -32 1 -58 8 -69 19 -10 9 -38 35 -62 57 l-45 40 21 20 c12 10 24 28 28
40 8 25 49 36 81 21 31 -14 44 -7 44 24 0 34 -40 43 -91 20 -39 -18 -40 -18
-61 2 -26 27 -18 51 30 83 36 24 41 26 62 29 6 0 10 8 10 16 0 17 62 59 102
68 17 5 28 15 30 30 2 17 9 21 29 19 29 -3 46 27 26 47 -6 6 -13 41 -15 78 -1
36 -7 74 -13 84 -15 28 -11 55 11 70 25 17 17 59 -11 59 -10 0 -43 9 -74 21
-39 15 -55 25 -51 35 3 8 -1 14 -8 14 -7 0 -26 7 -42 15 -21 10 -39 12 -68 5
-22 -5 -44 -6 -50 -2 -13 7 -94 23 -121 23 -11 0 -56 11 -100 24 -44 13 -107
29 -140 36 -82 15 -85 17 -85 32 0 22 -55 47 -105 47 -25 0 -60 8 -78 17 -18
10 -52 25 -77 34 l-45 16 3 57 c3 64 -9 71 -52 31 -33 -31 -47 -31 -74 -2 -30
31 -28 50 10 92 35 40 28 55 -24 55 -23 0 -33 9 -59 55 -17 30 -35 58 -40 61
-5 3 -9 16 -9 30 0 29 -1 29 -50 4 -42 -21 -95 -26 -105 -10 -3 6 -19 10 -34
10 -16 0 -33 6 -38 13 -19 24 -31 117 -20 158 9 36 7 41 -17 64 -14 13 -24 30
-21 37 3 7 0 20 -5 28 -8 13 -14 10 -37 -14 l-27 -29 -21 27 c-24 30 -27 31
-82 6z"><title>Esch-sur-Alzette</title></path></a>
</g>
</svg>